<svg width="147" height="47" viewBox="0 0 147 47" fill="none" xmlns="http://www.w3.org/2000/svg">
<path d="M50.2627 37.6798L49.942 36.7326L50.2627 37.6798ZM147 46.5L136.419 41.876L145.714 35.0248L147 46.5ZM0.322043 2.01596C2.13126 1.68876 3.91258 1.42487 5.66415 1.22048L5.89596 3.207C4.1862 3.40651 2.44627 3.66424 0.677972 3.98404L0.322043 2.01596ZM16.4295 0.68724C20.2052 0.761203 23.7966 1.11546 27.1803 1.70125L26.8391 3.67193C23.5563 3.1036 20.0658 2.75886 16.3903 2.68685L16.4295 0.68724ZM37.6369 4.43727C41.2853 5.7476 44.5641 7.34095 47.4246 9.1208L46.3681 10.8189C43.634 9.11775 40.4836 7.58475 36.9608 6.31956L37.6369 4.43727ZM55.7961 16.1271C58.5747 19.364 60.2559 22.8322 60.5315 26.1615L58.5383 26.3265C58.3077 23.5401 56.876 20.4557 54.2785 17.4297L55.7961 16.1271ZM55.6229 36.1412C54.2331 37.124 52.554 37.9599 50.5833 38.627L49.942 36.7326C51.7612 36.1168 53.2609 35.3619 54.4681 34.5083L55.6229 36.1412ZM50.5833 38.627C49.2833 39.067 47.8643 39.2143 46.4492 39.1159L46.588 37.1207C47.7793 37.2036 48.9285 37.0756 49.942 36.7326L50.5833 38.627ZM38.9512 36.0425C36.8846 34.2188 35.5198 31.6207 35.7865 28.474L37.7794 28.6429C37.5752 31.0524 38.5963 33.0619 40.2746 34.5429L38.9512 36.0425ZM39.1104 21.1383C39.8699 20.1977 40.7695 19.2394 41.8206 18.2662L43.1794 19.7338C42.1906 20.6493 41.3586 21.5377 40.6665 22.3948L39.1104 21.1383ZM41.8206 18.2662C42.959 17.2122 44.3552 16.1724 45.9713 15.1772L47.02 16.8802C45.4918 17.8213 44.2044 18.7847 43.1794 19.7338L41.8206 18.2662ZM55.235 10.8752C58.2176 9.83212 61.519 8.94313 65.0709 8.28417L65.4357 10.2506C61.9816 10.8914 58.7791 11.7545 55.8952 12.7631L55.235 10.8752ZM75.1449 7.1228C78.4029 6.96821 81.7921 7.01664 85.2743 7.31154L85.1055 9.3044C81.7136 9.01716 78.4125 8.97 75.2397 9.12055L75.1449 7.1228ZM95.2936 8.82928C98.5053 9.53482 101.762 10.4661 105.036 11.6533L104.354 13.5335C101.164 12.377 97.9926 11.4699 94.8645 10.7827L95.2936 8.82928ZM114.316 15.7161C117.224 17.2187 120.126 18.9441 123.003 20.9129L121.873 22.5634C119.065 20.6411 116.233 18.958 113.398 17.493L114.316 15.7161ZM131.006 27.1047C133.466 29.242 135.894 31.58 138.275 34.1323L136.813 35.4968C134.478 32.9947 132.101 30.7054 129.694 28.6147L131.006 27.1047Z" fill="#EB4549"/>
</svg>
