<svg width="203" height="66" viewBox="0 0 203 66" fill="none" xmlns="http://www.w3.org/2000/svg">
<path d="M81.5001 55.5912L82.3683 56.0874L81.5001 55.5912ZM203 58.5933L192.16 54.6159L201.024 47.2165L203 58.5933ZM0.386794 38.2667C1.82695 37.1487 3.29605 36.0981 4.78904 35.1129L5.89061 36.7822C4.43976 37.7396 3.01235 38.7604 1.61321 39.8466L0.386794 38.2667ZM14.2365 29.8573C17.5621 28.3206 20.9483 27.0591 24.3474 26.0535L24.9148 27.9713C21.6054 28.9503 18.3101 30.1781 15.0754 31.6728L14.2365 29.8573ZM34.8975 23.7314C38.5516 23.1944 42.1644 22.934 45.676 22.9264L45.6803 24.9264C42.2642 24.9338 38.7471 25.1871 35.1883 25.7101L34.8975 23.7314ZM56.4636 23.7319C60.2191 24.3176 63.7572 25.2125 66.9819 26.3821L66.2999 28.2622C63.207 27.1404 59.7951 26.2757 56.1554 25.708L56.4636 23.7319ZM76.6687 31.4202C79.9006 33.7992 82.3843 36.6362 83.8213 39.855L81.9951 40.6703C80.7302 37.8372 78.5048 35.2551 75.4831 33.0309L76.6687 31.4202ZM84.554 50.9551C84.0852 52.6366 83.3611 54.3503 82.3683 56.0874L80.6318 55.095C81.5515 53.486 82.2075 51.9245 82.6274 50.4181L84.554 50.9551ZM82.3683 56.0874C81.2825 57.9872 80.0565 59.5842 78.7265 60.8938L77.3233 59.4686C78.5114 58.2988 79.6284 56.8508 80.6318 55.095L82.3683 56.0874ZM67.6916 65.5301C63.6626 65.4794 59.7384 63.7975 56.6285 60.9462L57.9801 59.472C60.7676 62.0278 64.2313 63.4864 67.7167 63.5302L67.6916 65.5301ZM50.6636 50.6108C49.8253 47.047 49.8314 43.0248 50.9777 38.7347L52.9099 39.251C51.845 43.2362 51.8509 46.9235 52.6105 50.1529L50.6636 50.6108ZM56.0265 28.0801C57.0794 26.541 58.2856 24.9891 59.6558 23.4308L61.1578 24.7515C59.838 26.2524 58.682 27.7406 57.6772 29.2093L56.0265 28.0801ZM59.6558 23.4308C60.8259 22.1002 62.0543 20.8006 63.3394 19.5393L64.7403 20.9667C63.4906 22.1933 62.2958 23.4572 61.1578 24.7515L59.6558 23.4308ZM71.5326 12.6212C74.3963 10.5534 77.455 8.6756 80.6971 7.03826L81.5987 8.82351C78.4541 10.4117 75.4851 12.2341 72.7035 14.2427L71.5326 12.6212ZM90.6369 2.99862C93.9825 1.95055 97.4766 1.15454 101.109 0.65116L101.384 2.63223C97.8627 3.12015 94.4767 3.89158 91.2348 4.90716L90.6369 2.99862ZM111.822 0.043423C115.282 0.122495 118.843 0.464063 122.498 1.09599L122.157 3.06674C118.599 2.45142 115.136 2.11968 111.776 2.0429L111.822 0.043423ZM132.89 3.6221C136.162 4.64421 139.497 5.89783 142.891 7.40018L142.081 9.22897C138.754 7.75628 135.491 6.52975 132.294 5.53112L132.89 3.6221ZM152.431 12.2083C155.402 13.8861 158.411 15.7547 161.457 17.8246L160.333 19.4788C157.331 17.4386 154.368 15.5993 151.448 13.9496L152.431 12.2083ZM170.052 24.132C172.738 26.2493 175.45 28.524 178.186 30.9628L176.856 32.4558C174.148 30.0428 171.467 27.7941 168.814 25.7027L170.052 24.132ZM185.958 38.2745C188.392 40.6844 190.843 43.2252 193.31 45.9012L191.839 47.2569C189.392 44.6023 186.962 42.0834 184.551 39.6955L185.958 38.2745Z" fill="#EB4549"/>
</svg>
