<svg width="204" height="66" viewBox="0 0 204 66" fill="none" xmlns="http://www.w3.org/2000/svg">
<path d="M82.0001 9.9654L82.8683 9.46921L82.0001 9.9654ZM203.5 6.96338L192.66 10.9407L201.524 18.3401L203.5 6.96338ZM0.886794 27.2899C2.32695 28.4079 3.79605 29.4585 5.28904 30.4437L6.39061 28.7744C4.93976 27.817 3.51235 26.7962 2.11321 25.7101L0.886794 27.2899ZM14.7365 35.6994C18.0621 37.236 21.4483 38.4976 24.8474 39.5032L25.4148 37.5853C22.1054 36.6063 18.8101 35.3785 15.5754 33.8838L14.7365 35.6994ZM35.3975 41.8253C39.0516 42.3622 42.6644 42.6227 46.176 42.6302L46.1803 40.6302C42.7642 40.6229 39.2471 40.3695 35.6883 39.8465L35.3975 41.8253ZM56.9636 41.8247C60.7191 41.239 64.2572 40.3442 67.4819 39.1745L66.7999 37.2944C63.707 38.4162 60.2951 39.2809 56.6554 39.8486L56.9636 41.8247ZM77.1687 34.1364C80.4006 31.7574 82.8843 28.9204 84.3213 25.7017L82.4951 24.8863C81.2302 27.7195 79.0048 30.3015 75.9831 32.5258L77.1687 34.1364ZM85.054 14.6015C84.5852 12.92 83.8611 11.2064 82.8683 9.46921L81.1318 10.4616C82.0515 12.0707 82.7075 13.6322 83.1274 15.1386L85.054 14.6015ZM82.8683 9.46921C81.7825 7.56942 80.5565 5.97244 79.2265 4.66287L77.8233 6.08801C79.0114 7.25782 80.1284 8.70583 81.1318 10.4616L82.8683 9.46921ZM68.1916 0.0265557C64.1626 0.0772266 60.2384 1.75912 57.1285 4.61044L58.4801 6.08461C61.2676 3.52884 64.7313 2.07023 68.2167 2.0264L68.1916 0.0265557ZM51.1636 14.9458C50.3253 18.5097 50.3314 22.5318 51.4777 26.822L53.4099 26.3057C52.345 22.3205 52.3509 18.6332 53.1105 15.4038L51.1636 14.9458ZM56.5265 37.4766C57.5794 39.0156 58.7856 40.5676 60.1558 42.1259L61.6578 40.8052C60.338 39.3043 59.182 37.816 58.1772 36.3473L56.5265 37.4766ZM60.1558 42.1259C61.3259 43.4565 62.5543 44.756 63.8394 46.0173L65.2403 44.5899C63.9906 43.3634 62.7958 42.0995 61.6578 40.8052L60.1558 42.1259ZM72.0326 52.9354C74.8963 55.0033 77.955 56.881 81.1971 58.5184L82.0987 56.7331C78.9541 55.145 75.9851 53.3226 73.2035 51.314L72.0326 52.9354ZM91.1369 62.558C94.4825 63.6061 97.9766 64.4021 101.609 64.9055L101.884 62.9244C98.3627 62.4365 94.9767 61.6651 91.7348 60.6495L91.1369 62.558ZM112.322 65.5132C115.782 65.4341 119.343 65.0926 122.998 64.4606L122.657 62.4899C119.099 63.1052 115.636 63.437 112.276 63.5137L112.322 65.5132ZM133.39 61.9345C136.662 60.9124 139.997 59.6588 143.391 58.1565L142.581 56.3277C139.254 57.8004 135.991 59.0269 132.794 60.0255L133.39 61.9345ZM152.931 53.3484C155.902 51.6705 158.911 49.8019 161.957 47.7321L160.833 46.0778C157.831 48.118 154.868 49.9574 151.948 51.607L152.931 53.3484ZM170.552 41.4247C173.238 39.3073 175.95 37.0326 178.686 34.5938L177.356 33.1008C174.648 35.5139 171.967 37.7625 169.314 39.854L170.552 41.4247ZM186.458 27.2822C188.892 24.8722 191.343 22.3315 193.81 19.6554L192.339 18.2997C189.892 20.9544 187.462 23.4732 185.051 25.8611L186.458 27.2822Z" fill="#EB4549"/>
</svg>
