<svg width="12" height="10" viewBox="0 0 12 10" fill="none" xmlns="http://www.w3.org/2000/svg">
<path d="M12 9.2C12 9.46 11.9012 9.65833 11.7035 9.795C11.5058 9.93167 11.2633 10 10.9757 10H1.02426C0.736748 10 0.49416 9.93 0.296496 9.79C0.098832 9.65 0 9.45333 0 9.2C0 9 0.06469 8.79667 0.19407 8.59L5.16442 0.55C5.40162 0.183333 5.68194 0 6.00539 0C6.32884 0 6.60198 0.183333 6.8248 0.55L11.8059 8.6C11.9353 8.81333 12 9.01333 12 9.2ZM6.74933 4.09V2.63H5.25067V4.09C5.25067 4.18333 5.25786 4.27167 5.27224 4.355C5.28661 4.43833 5.30638 4.53167 5.33154 4.635C5.35669 4.73833 5.37646 4.82667 5.39084 4.9L5.67116 6.52H6.30728L6.59838 4.9C6.61276 4.83333 6.63432 4.74667 6.66307 4.64C6.69182 4.53333 6.71339 4.43833 6.72776 4.355C6.74214 4.27167 6.74933 4.18333 6.74933 4.09ZM6.74933 7.96C6.74933 7.76667 6.67565 7.60333 6.5283 7.47C6.38095 7.33667 6.20305 7.27 5.99461 7.27C5.79335 7.27 5.61905 7.33667 5.4717 7.47C5.32435 7.60333 5.25067 7.76667 5.25067 7.96C5.25067 8.15333 5.32435 8.31833 5.4717 8.455C5.61905 8.59167 5.79335 8.66 5.99461 8.66C6.20305 8.66 6.38095 8.59167 6.5283 8.455C6.67565 8.31833 6.74933 8.15333 6.74933 7.96Z" fill="white"/>
</svg>
