<svg width="44" height="44" viewBox="0 0 44 44" fill="none" xmlns="http://www.w3.org/2000/svg">
<path d="M22 2.75C11.275 2.75 2.75 11.275 2.75 22C2.75 32.725 11.275 41.25 22 41.25C32.725 41.25 41.25 32.725 41.25 22C41.25 11.275 32.725 2.75 22 2.75ZM22 38.5C12.925 38.5 5.5 31.075 5.5 22C5.5 12.925 12.925 5.5 22 5.5C31.075 5.5 38.5 12.925 38.5 22C38.5 31.075 31.075 38.5 22 38.5Z" fill="#999999"/>
<path d="M29.425 31.625L22 24.2L14.575 31.625L12.375 29.425L19.8 22L12.375 14.575L14.575 12.375L22 19.8L29.425 12.375L31.625 14.575L24.2 22L31.625 29.425L29.425 31.625Z" fill="#999999"/>
</svg>
