<svg width="150" height="150" viewBox="0 0 150 150" fill="none" xmlns="http://www.w3.org/2000/svg">
<path d="M37.5 85.4V127H112.5V47.1L88.4 23H37.5V63.65" stroke="#EB4549" stroke-width="4.61999" stroke-miterlimit="22.9256"/>
<path d="M88.4004 23V47.0999H112.5" stroke="#EB4549" stroke-width="4.61999" stroke-miterlimit="22.9256"/>
<path fill-rule="evenodd" clip-rule="evenodd" d="M69 98.85L59.5 107.7C59.1 108.05 58.55 108.05 58.1501 107.65L15.2501 61.65C13.9001 60.2 13.9501 57.85 15.4501 56.5L20.9501 51.3499C22.4001 50 24.7501 50.05 26.1001 51.5499L69.0001 97.5499C69.4001 97.9 69.4001 98.5 69.0001 98.8499L69 98.85Z" stroke="#EB4549" stroke-width="4.61999" stroke-miterlimit="22.9256"/>
<path fill-rule="evenodd" clip-rule="evenodd" d="M22.4502 50L14.1002 57.8L11.3502 54.85C9.20018 52.55 9.35014 49 11.6501 46.85L11.7501 46.8C14.0501 44.65 17.6001 44.8 19.7501 47.1L22.4501 50H22.4502Z" stroke="#EB4549" stroke-width="4.61999" stroke-miterlimit="22.9256"/>
<path fill-rule="evenodd" clip-rule="evenodd" d="M59.8999 108.85L74.1 115.7C75.2499 116.25 76.4499 115.1 76 113.95L70.1499 99.35C69.9499 98.85 69.25 98.7 68.85 99.05L59.6999 107.5C59.2999 107.9 59.4 108.6 59.8999 108.85V108.85Z" stroke="#EB4549" stroke-width="4.61999" stroke-miterlimit="22.9256"/>
<path d="M53.4004 59.95H96.6004" stroke="#EB4549" stroke-width="4.61999" stroke-miterlimit="22.9256"/>
<path d="M53.4004 70.2H96.6004" stroke="#EB4549" stroke-width="4.61999" stroke-miterlimit="22.9256"/>
<path d="M53.4004 80.5H96.6004" stroke="#EB4549" stroke-width="4.61999" stroke-miterlimit="22.9256"/>
<path d="M62.7998 90.75H96.5998" stroke="#EB4549" stroke-width="4.61999" stroke-miterlimit="22.9256"/>
<path d="M82.2998 114.3H96.5998" stroke="#EB4549" stroke-width="4.61999" stroke-miterlimit="22.9256"/>
<path fill-rule="evenodd" clip-rule="evenodd" d="M62.2006 38.4499V44.5499H56.1006V38.4499H62.2006ZM64.9506 35.7H53.3506V47.2999H64.9506V35.7V35.7Z" fill="#EB4549"/>
</svg>
