<svg width="15" height="8" viewBox="0 0 15 8" fill="none" xmlns="http://www.w3.org/2000/svg">
<path d="M7.00027 7.00028C6.76662 7.00073 6.54019 6.91936 6.36027 6.77028L0.360275 1.77028C0.156059 1.60054 0.0276344 1.35663 0.00325475 1.0922C-0.0211249 0.827773 0.060537 0.564492 0.230276 0.360275C0.400014 0.156059 0.643926 0.0276348 0.908352 0.00325512C1.17278 -0.0211246 1.43606 0.0605369 1.64028 0.230276L7.00027 4.71028L12.3603 0.390278C12.4626 0.307212 12.5803 0.24518 12.7066 0.207749C12.8329 0.170317 12.9654 0.158223 13.0965 0.172162C13.2275 0.186102 13.3545 0.225799 13.4701 0.288972C13.5857 0.352146 13.6878 0.437551 13.7703 0.540278C13.8619 0.643099 13.9312 0.763726 13.974 0.8946C14.0168 1.02547 14.0321 1.16377 14.019 1.30084C14.0058 1.4379 13.9645 1.57077 13.8976 1.69113C13.8307 1.81149 13.7397 1.91673 13.6303 2.00028L7.63027 6.83028C7.44519 6.95579 7.22338 7.01565 7.00027 7.00028Z" fill="#999999"/>
</svg>
