<svg width="26" height="18" viewBox="0 0 26 18" fill="none" xmlns="http://www.w3.org/2000/svg">
<path fill-rule="evenodd" clip-rule="evenodd" d="M0.5 2.25C0.5 1.65326 0.763392 1.08097 1.23223 0.65901C1.70107 0.237053 2.33696 0 3 0H23C23.663 0 24.2989 0.237053 24.7678 0.65901C25.2366 1.08097 25.5 1.65326 25.5 2.25C25.5 2.84674 25.2366 3.41903 24.7678 3.84099C24.2989 4.26295 23.663 4.5 23 4.5H3C2.33696 4.5 1.70107 4.26295 1.23223 3.84099C0.763392 3.41903 0.5 2.84674 0.5 2.25ZM0.5 9C0.5 8.40326 0.763392 7.83097 1.23223 7.40901C1.70107 6.98705 2.33696 6.75 3 6.75H23C23.663 6.75 24.2989 6.98705 24.7678 7.40901C25.2366 7.83097 25.5 8.40326 25.5 9C25.5 9.59674 25.2366 10.169 24.7678 10.591C24.2989 11.0129 23.663 11.25 23 11.25H3C2.33696 11.25 1.70107 11.0129 1.23223 10.591C0.763392 10.169 0.5 9.59674 0.5 9ZM0.5 15.75C0.5 15.1533 0.763392 14.581 1.23223 14.159C1.70107 13.7371 2.33696 13.5 3 13.5H23C23.663 13.5 24.2989 13.7371 24.7678 14.159C25.2366 14.581 25.5 15.1533 25.5 15.75C25.5 16.3467 25.2366 16.919 24.7678 17.341C24.2989 17.7629 23.663 18 23 18H3C2.33696 18 1.70107 17.7629 1.23223 17.341C0.763392 16.919 0.5 16.3467 0.5 15.75Z" fill="white"/>
</svg>
