<svg width="35" height="35" viewBox="0 0 35 35" fill="none" xmlns="http://www.w3.org/2000/svg">
<path d="M17.5005 10.4897C13.6211 10.4897 10.4902 13.6206 10.4902 17.5C10.4902 21.3794 13.6211 24.5103 17.5005 24.5103C21.3799 24.5103 24.5107 21.3794 24.5107 17.5C24.5107 13.6206 21.3799 10.4897 17.5005 10.4897ZM17.5005 22.0562C14.9917 22.0562 12.9443 20.0088 12.9443 17.5C12.9443 14.9912 14.9917 12.9438 17.5005 12.9438C20.0093 12.9438 22.0566 14.9912 22.0566 17.5C22.0566 20.0088 20.0093 22.0562 17.5005 22.0562ZM24.7979 8.56885C23.8921 8.56885 23.1606 9.30029 23.1606 10.2061C23.1606 11.1118 23.8921 11.8433 24.7979 11.8433C25.7036 11.8433 26.4351 11.1152 26.4351 10.2061C26.4353 9.99098 26.3932 9.77796 26.311 9.57921C26.2288 9.38045 26.1082 9.19986 25.9561 9.04777C25.8041 8.89569 25.6235 8.77511 25.4247 8.69292C25.2259 8.61074 25.0129 8.56858 24.7979 8.56885Z" fill="#eb4549"/>
<path d="M31.1651 17.5C31.1651 15.6133 31.1822 13.7437 31.0762 11.8604C30.9703 9.67289 30.4712 7.73149 28.8716 6.13188C27.2686 4.52885 25.3306 4.03324 23.1431 3.92729C21.2564 3.82133 19.3868 3.83842 17.5035 3.83842C15.6167 3.83842 13.7471 3.82133 11.8638 3.92729C9.67631 4.03324 7.7349 4.53227 6.13529 6.13188C4.53227 7.7349 4.03666 9.67289 3.9307 11.8604C3.82475 13.7471 3.84184 15.6167 3.84184 17.5C3.84184 19.3833 3.82475 21.2564 3.9307 23.1397C4.03666 25.3272 4.53568 27.2686 6.13529 28.8682C7.73832 30.4712 9.67631 30.9668 11.8638 31.0728C13.7505 31.1787 15.6202 31.1617 17.5035 31.1617C19.3902 31.1617 21.2598 31.1787 23.1431 31.0728C25.3306 30.9668 27.272 30.4678 28.8716 28.8682C30.4747 27.2652 30.9703 25.3272 31.0762 23.1397C31.1856 21.2564 31.1651 19.3868 31.1651 17.5ZM28.1573 25.5596C27.9078 26.1817 27.607 26.6465 27.125 27.125C26.6431 27.607 26.1817 27.9078 25.5596 28.1573C23.7618 28.8716 19.4927 28.711 17.5 28.711C15.5074 28.711 11.2349 28.8716 9.43705 28.1607C8.81498 27.9112 8.35014 27.6104 7.87162 27.1285C7.38969 26.6465 7.08891 26.1851 6.8394 25.563C6.12846 23.7618 6.2891 19.4927 6.2891 17.5C6.2891 15.5074 6.12846 11.2349 6.8394 9.43705C7.08891 8.81498 7.38969 8.35014 7.87162 7.87162C8.35356 7.39311 8.81498 7.08891 9.43705 6.8394C11.2349 6.12846 15.5074 6.2891 17.5 6.2891C19.4927 6.2891 23.7652 6.12846 25.563 6.8394C26.1851 7.08891 26.6499 7.38969 27.1285 7.87162C27.6104 8.35356 27.9112 8.81498 28.1607 9.43705C28.8716 11.2349 28.711 15.5074 28.711 17.5C28.711 19.4927 28.8716 23.7618 28.1573 25.5596Z" fill="#eb4549"/>
</svg>
