<svg width="35" height="35" viewBox="0 0 35 35" fill="none" xmlns="http://www.w3.org/2000/svg">
<path d="M18.4228 9.93872C14.2816 9.93872 10.9395 13.2809 10.9395 17.4221C10.9395 21.5633 14.2816 24.9055 18.4228 24.9055C22.564 24.9055 25.9062 21.5633 25.9062 17.4221C25.9062 13.2809 22.564 9.93872 18.4228 9.93872ZM18.4228 22.2857C15.7447 22.2857 13.5592 20.1002 13.5592 17.4221C13.5592 14.744 15.7447 12.5585 18.4228 12.5585C21.1009 12.5585 23.2865 14.744 23.2865 17.4221C23.2865 20.1002 21.1009 22.2857 18.4228 22.2857ZM26.2127 7.88818C25.2458 7.88818 24.465 8.669 24.465 9.63589C24.465 10.6028 25.2458 11.3836 26.2127 11.3836C27.1796 11.3836 27.9604 10.6064 27.9604 9.63589C27.9607 9.40629 27.9157 9.1789 27.8279 8.96673C27.7402 8.75456 27.6115 8.56178 27.4491 8.39943C27.2868 8.23709 27.094 8.10836 26.8818 8.02063C26.6697 7.93291 26.4423 7.8879 26.2127 7.88818Z" fill="white"/>
<path d="M33.0092 17.4221C33.0092 15.4081 33.0274 13.4123 32.9143 11.4019C32.8012 9.06673 32.2685 6.9943 30.561 5.28673C28.8497 3.57551 26.781 3.04646 24.4458 2.93335C22.4318 2.82024 20.436 2.83849 18.4255 2.83849C16.4115 2.83849 14.4157 2.82024 12.4053 2.93335C10.0701 3.04646 7.99771 3.57916 6.29015 5.28673C4.57893 6.99795 4.04988 9.06673 3.93677 11.4019C3.82366 13.4159 3.84191 15.4117 3.84191 17.4221C3.84191 19.4325 3.82366 21.432 3.93677 23.4424C4.04988 25.7775 4.58258 27.85 6.29015 29.5575C8.00136 31.2687 10.0701 31.7978 12.4053 31.9109C14.4193 32.024 16.4151 32.0058 18.4255 32.0058C20.4396 32.0058 22.4354 32.024 24.4458 31.9109C26.781 31.7978 28.8534 31.2651 30.561 29.5575C32.2722 27.8463 32.8012 25.7775 32.9143 23.4424C33.0311 21.432 33.0092 19.4362 33.0092 17.4221ZM29.7984 26.0256C29.532 26.6897 29.211 27.1859 28.6965 27.6967C28.182 28.2112 27.6895 28.5323 27.0254 28.7986C25.1062 29.5612 20.5491 29.3897 18.4219 29.3897C16.2947 29.3897 11.7339 29.5612 9.81474 28.8023C9.15069 28.5359 8.65447 28.2148 8.14366 27.7004C7.6292 27.1859 7.30812 26.6933 7.04177 26.0293C6.28285 24.1065 6.45434 19.5493 6.45434 17.4221C6.45434 15.295 6.28285 10.7342 7.04177 8.81497C7.30812 8.15092 7.6292 7.6547 8.14366 7.14389C8.65812 6.63308 9.15069 6.30835 9.81474 6.042C11.7339 5.28308 16.2947 5.45457 18.4219 5.45457C20.5491 5.45457 25.1099 5.28308 27.0291 6.042C27.6931 6.30835 28.1893 6.62943 28.7001 7.14389C29.2146 7.65835 29.5357 8.15092 29.802 8.81497C30.561 10.7342 30.3895 15.295 30.3895 17.4221C30.3895 19.5493 30.5609 24.1065 29.7984 26.0256Z" fill="white"/>
</svg>
