<svg width="122" height="105" viewBox="0 0 122 105" fill="none" xmlns="http://www.w3.org/2000/svg">
<path d="M68.9584 104.652C97.8187 104.652 121.215 81.2251 121.215 52.3262C121.215 23.4272 97.8187 0 68.9584 0C40.0981 0 16.7021 23.4272 16.7021 52.3262C16.7021 81.2251 40.0981 104.652 68.9584 104.652Z" fill="#FEC331"/>
<path d="M44.1237 71.6356H48.3264L48.3131 72.175L48.2731 72.7083L48.2066 73.2355L48.1146 73.7531L47.9972 74.2634L47.8555 74.7627L47.6909 75.2512L47.5021 75.73L47.2915 76.1966L47.0591 76.6511L46.8061 77.0911L46.5325 77.5178L46.2396 77.9299L45.9273 78.3274L45.598 78.708L45.2506 79.0729L44.8863 79.4219L44.505 79.7516L44.1092 80.0631L43.6976 80.3564L43.2716 80.6304L42.831 80.8837L42.3783 81.1164L41.9134 81.3273L41.4353 81.5164L40.9463 81.6812L40.4476 81.823L39.938 81.9406L39.4211 82.0327L38.8946 82.0994L38.362 82.1394L37.8233 82.1527V77.9444L38.1502 77.9359L38.4709 77.9117L38.7868 77.8717L39.0979 77.8159L39.4018 77.7456L39.6995 77.6608L39.9925 77.5614L40.2769 77.4487L40.5565 77.3214L40.8289 77.182L41.0928 77.0305L41.3482 76.8669L41.5951 76.6911L41.8348 76.5033L42.0635 76.3045L42.2826 76.096L42.492 75.8766L42.6905 75.6463L42.8782 75.4076L43.0537 75.1603L43.2171 74.9046L43.3696 74.6403L43.5088 74.3688L43.6347 74.09L43.7473 73.804L43.8465 73.5107L43.9313 73.2125L44.0015 72.9083L44.0571 72.5968L44.0971 72.2804L44.1213 71.9592L44.1298 71.632L44.1237 71.6356ZM48.3264 52.7007V71.6356H44.1237V52.7007H48.3264ZM37.8209 46.3895V42.1812L38.3596 42.1945L38.8922 42.2345L39.4187 42.3011L39.9356 42.3933L40.4452 42.5108L40.9439 42.6526L41.4329 42.8175L41.911 43.0066L42.3758 43.2175L42.8285 43.4502L43.2691 43.7035L43.6952 43.9774L44.1068 44.2708L44.5026 44.5823L44.8839 44.9119L45.2482 45.261L45.5956 45.6258L45.9249 46.0064L46.2372 46.404L46.5301 46.8161L46.8036 47.2427L47.0566 47.6827L47.289 48.1373L47.4997 48.6039L47.6885 49.0827L47.8531 49.5711L47.9947 50.0705L48.1121 50.5808L48.2041 51.0983L48.2707 51.6256L48.3107 52.1589L48.324 52.6983H44.1213L44.1128 52.371L44.0886 52.0498L44.0487 51.7335L43.993 51.422L43.9228 51.1177L43.8381 50.8196L43.7388 50.5262L43.6262 50.2402L43.5003 49.9614L43.3611 49.6899L43.2086 49.4257L43.0452 49.1699L42.8697 48.9227L42.6821 48.6839L42.4836 48.4536L42.2742 48.2342L42.0551 48.0257L41.8263 47.827L41.5866 47.6391L41.3397 47.4633L41.0843 47.2997L40.8204 47.1482L40.5481 47.0088L40.2684 46.8816L39.984 46.7688L39.6911 46.6694L39.3933 46.5846L39.0895 46.5143L38.7784 46.4585L38.4625 46.4185L38.1417 46.3943L37.8149 46.3858L37.8209 46.3895ZM31.5181 52.7007H27.3154L27.3287 52.1613L27.3687 51.628L27.4353 51.1008L27.5273 50.5832L27.6447 50.0729L27.7863 49.5736L27.9509 49.0851L28.1397 48.6063L28.3504 48.1397L28.5828 47.6852L28.8358 47.2452L29.1093 46.8185L29.4022 46.4064L29.7145 46.0089L30.0438 45.6283L30.3912 45.2634L30.7555 44.9144L31.1368 44.5847L31.5326 44.2732L31.9442 43.9799L32.3703 43.7059L32.8109 43.4526L33.2636 43.2199L33.7284 43.009L34.2065 42.8199L34.6955 42.6551L35.1955 42.5133L35.705 42.3957L36.2219 42.3036L36.7485 42.2369L37.2811 42.1969L37.8197 42.1836V46.3919L37.4929 46.4004L37.1721 46.4246L36.8574 46.4646L36.5463 46.5204L36.2425 46.5907L35.9447 46.6755L35.653 46.7749L35.3685 46.8876L35.0889 47.0149L34.8166 47.1543L34.5527 47.3058L34.2973 47.4694L34.0504 47.6452L33.8107 47.833L33.5819 48.0318L33.3628 48.2403L33.1534 48.4597L32.9549 48.69L32.7673 48.9287L32.5918 49.176L32.4284 49.4317L32.2758 49.696L32.1366 49.9675L32.0108 50.2462L31.8982 50.5323L31.7989 50.8256L31.7142 51.1238L31.644 51.428L31.5883 51.7395L31.5484 52.0559L31.5242 52.3771L31.5157 52.7043L31.5181 52.7007Z" fill="#374047"/>
<path d="M48.3252 16.9339V52.7008H44.1226V16.9339H48.3252ZM33.6171 6.41434V2.20604L34.3712 2.22543L35.1168 2.2824L35.8528 2.37573L36.5778 2.50542L37.2896 2.67026L37.988 2.86904L38.6719 3.10054L39.3401 3.36477L39.9925 3.66052L40.6268 3.98535L41.2429 4.34049L41.8396 4.7235L42.4158 5.13439L42.9714 5.57195L43.5052 6.03375L44.016 6.521L44.5026 7.03249L44.965 7.56701L45.402 8.12335L45.8111 8.7003L46.1936 9.29785L46.5483 9.91479L46.8727 10.5499L47.168 11.2032L47.4319 11.8735L47.6631 12.5583L47.8616 13.2577L48.0262 13.9704L48.1558 14.6964L48.249 15.4333L48.3059 16.18L48.3252 16.9351H44.1226L44.1092 16.3921L44.0681 15.8576L44.0015 15.3315L43.9095 14.8152L43.7921 14.3073L43.6505 13.8092L43.4859 13.3219L43.2982 12.8456L43.0876 12.3801L42.8552 11.9268L42.6022 11.4868L42.3287 11.0602L42.0345 10.6469L41.7222 10.2493L41.3918 9.86752L41.0432 9.50147L40.6776 9.1524L40.2963 8.8215L39.8993 8.50879L39.4865 8.21547L39.0605 7.94154L38.6211 7.68822L38.1684 7.4555L37.7035 7.2446L37.2278 7.05673L36.7412 6.89189L36.2437 6.75008L35.7366 6.63251L35.2209 6.54039L34.6956 6.47373L34.1618 6.43252L33.6195 6.41918L33.6171 6.41434ZM23.4893 14.1607L19.4573 12.9728L19.4476 13.0056L19.6207 12.4274L19.8156 11.8602L20.0334 11.3026L20.2731 10.7572L20.5333 10.2227L20.8142 9.70025L21.1144 9.19118L21.4351 8.69545L21.7741 8.21305L22.1311 7.7464L22.5064 7.2943L22.8998 6.85795L23.3101 6.43737L23.7362 6.03375L24.178 5.6471L24.6356 5.27742L25.1076 4.92592L25.5942 4.59381L26.0954 4.27989L26.6098 3.98656L27.1363 3.71264L27.6762 3.45932L28.227 3.22781L28.7886 3.01812L29.3611 2.83146L29.9434 2.66784L30.5353 2.52845L31.1369 2.4133L31.7457 2.3224L32.3631 2.25694L32.9864 2.21695L33.6159 2.20361V6.41191L33.1644 6.42161L32.7177 6.4507L32.2771 6.49676L31.8426 6.56221L31.4141 6.64463L30.9928 6.74402L30.5776 6.86038L30.1697 6.99371L29.7691 7.14279L29.3769 7.30763L28.9932 7.48702L28.6167 7.68216L28.2499 7.89185L27.8929 8.11608L27.5443 8.35364L27.2065 8.60454L26.8797 8.86877L26.5626 9.14634L26.2563 9.43602L25.9634 9.73661L25.6826 10.0493L25.4139 10.373L25.1573 10.7075L24.9152 11.0517L24.6864 11.4056L24.4709 11.7693L24.2712 12.1414L24.0848 12.5232L23.9141 12.9122L23.7592 13.3086L23.62 13.7134L23.4977 14.1243L23.488 14.157L23.4893 14.1607ZM23.4989 14.1279L23.4893 14.1607L23.4965 14.134L23.4977 14.1279H23.4989ZM23.1128 16.9339H18.9101V16.8078L18.9113 16.6818L18.9138 16.5593L18.9174 16.4345L18.9222 16.3084L18.9283 16.1824L18.9343 16.0575L18.9416 15.9327L18.9501 15.8079L18.9598 15.683L18.9707 15.5582L18.9828 15.4333L18.9961 15.3085L19.0106 15.1812L19.0263 15.0576L19.0421 14.9364L19.059 14.8128L19.0772 14.6867L19.0978 14.5619L19.1183 14.4419L19.1401 14.3182L19.1631 14.1934L19.1873 14.0685L19.2127 13.9461L19.2394 13.8249L19.2672 13.7013L19.2963 13.5801L19.3253 13.4601L19.3568 13.3365L19.3895 13.2128L19.4222 13.094L19.4573 12.9728L23.4893 14.1607L23.4663 14.2419L23.4433 14.3243L23.4215 14.4043L23.4009 14.4855L23.3803 14.5691L23.361 14.6528L23.3428 14.7352L23.3246 14.82L23.3065 14.9037L23.2907 14.9861L23.275 15.0697L23.2605 15.1546L23.246 15.2442L23.2326 15.3291L23.2205 15.4127L23.2084 15.5L23.1963 15.5909L23.1854 15.6782L23.1758 15.763L23.1661 15.8515L23.1576 15.94L23.1503 16.0285L23.1431 16.1169L23.137 16.2066L23.131 16.2963L23.1261 16.386L23.1225 16.4757L23.1189 16.5654L23.1164 16.6563L23.1152 16.7496L23.114 16.8405V16.9314L23.1128 16.9339ZM24.2143 21.6306L20.4559 23.513L20.3651 23.3275L20.2767 23.1409L20.1908 22.953L20.1073 22.7627L20.0274 22.5724L19.9487 22.3797L19.8737 22.1858L19.801 21.9906L19.7296 21.7918L19.663 21.5943L19.5977 21.3955L19.5359 21.1943L19.4766 20.9931L19.4197 20.7882L19.3665 20.5834L19.3156 20.3786L19.2672 20.1725L19.2212 19.9628L19.1789 19.7531L19.1389 19.5422L19.1026 19.3301L19.0687 19.118L19.0384 18.9035L19.0118 18.6877L18.9876 18.4708L18.967 18.255L18.9489 18.0369L18.9343 17.8187L18.9222 17.5981L18.9138 17.3775L18.9089 17.1569L18.9077 16.9351H23.1104L23.1116 17.0951L23.1152 17.2551L23.1213 17.4126L23.1298 17.569L23.1406 17.7266L23.154 17.8829L23.1697 18.0405L23.1866 18.1944L23.206 18.3471L23.2278 18.4987L23.252 18.6514L23.2774 18.8029L23.3053 18.9532L23.3355 19.1023L23.3682 19.2501L23.4021 19.3992L23.4384 19.5471L23.4759 19.6938L23.5159 19.8368L23.5583 19.981L23.603 20.124L23.649 20.2671L23.6975 20.4089L23.7471 20.547L23.7991 20.6864L23.8524 20.8246L23.9081 20.9616L23.9662 21.0985L24.0255 21.2331L24.0872 21.3676L24.1502 21.5009L24.2143 21.6318V21.6306Z" fill="#374047"/>
<path d="M44.1223 88.4659V73.7393H48.325V88.4659H44.1223ZM33.6168 103.194V98.9854L34.1591 98.9721L34.6929 98.9308L35.2183 98.8642L35.7339 98.7721L36.2411 98.6545L36.7386 98.5127L37.2252 98.3478L37.7009 98.16L38.1657 97.9491L38.6184 97.7164L39.059 97.463L39.4851 97.1903L39.8979 96.8958L40.2949 96.5831L40.6762 96.2522L41.0417 95.9031L41.3903 95.5371L41.7208 95.1553L42.0331 94.7577L42.3272 94.3444L42.6008 93.9177L42.8538 93.4778L43.0862 93.0232L43.2968 92.5578L43.4844 92.0815L43.649 91.5942L43.7906 91.0961L43.9081 90.5882L44.0001 90.0719L44.0666 89.5458L44.1078 89.0113L44.1211 88.4683H48.3238L48.3044 89.2234L48.2475 89.97L48.1543 90.707L48.0248 91.433L47.8602 92.1457L47.6617 92.8451L47.4305 93.5299L47.1666 94.2002L46.8712 94.8522L46.5468 95.4874L46.1922 96.1043L45.8097 96.7019L45.4005 97.2788L44.9636 97.8351L44.5012 98.3697L44.0146 98.8812L43.5038 99.3684L42.97 99.8314L42.4144 100.268L41.8382 100.679L41.2414 101.062L40.6253 101.416L39.9911 101.742L39.3386 102.037L38.6705 102.302L37.9866 102.533L37.2881 102.732L36.5764 102.897L35.8513 103.026L35.1154 103.12L34.3697 103.177L33.6156 103.196L33.6168 103.194ZM18.9087 88.4659H23.1114L23.1247 89.0089L23.1658 89.5434L23.2324 90.0694L23.3244 90.5858L23.4418 91.0936L23.5834 91.5918L23.7481 92.079L23.9357 92.5554L24.1463 93.0208L24.3787 93.4753L24.6317 93.9153L24.9052 94.342L25.1982 94.7553L25.5105 95.1528L25.8409 95.5359L26.1895 95.9019L26.5551 96.251L26.9376 96.5819L27.3346 96.8946L27.7474 97.1891L28.1735 97.463L28.6141 97.7164L29.0668 97.9491L29.5304 98.1588L30.0073 98.3478L30.4939 98.5127L30.9914 98.6545L31.4986 98.7721L32.0142 98.8642L32.5395 98.9308L33.0733 98.9721L33.6156 98.9854V103.194L32.8615 103.174L32.1159 103.117L31.3799 103.024L30.6549 102.894L29.9431 102.729L29.2447 102.531L28.5608 102.299L27.8926 102.035L27.2402 101.739L26.6059 101.413L25.991 101.059L25.3943 100.676L24.8181 100.265L24.2625 99.829L23.7299 99.366L23.2191 98.8787L22.7325 98.3672L22.2713 97.8339L21.8343 97.2776L21.424 96.7006L21.0415 96.1031L20.6868 95.4862L20.3624 94.851L20.0671 94.1989L19.8032 93.5287L19.572 92.8439L19.3735 92.1445L19.2089 91.4318L19.0794 90.7058L18.9862 89.9688L18.9293 89.2222L18.9099 88.4671L18.9087 88.4659ZM19.503 84.323L23.5265 85.5387L23.5011 85.6236L23.4769 85.7072L23.4527 85.7945L23.4297 85.8793L23.4079 85.9678L23.3861 86.0563L23.3668 86.1399L23.3462 86.2296L23.3268 86.3193L23.3099 86.4041L23.2917 86.4963L23.2748 86.5872L23.259 86.6769L23.2433 86.769L23.2288 86.8587L23.2155 86.9496L23.2021 87.0429L23.19 87.1338L23.1792 87.2283L23.1683 87.3229L23.1598 87.4126L23.1513 87.5047L23.1428 87.6005L23.1356 87.6962L23.1295 87.7932L23.1247 87.8865L23.1198 87.9798L23.1162 88.0744L23.1138 88.1689L23.1126 88.2659L23.1114 88.3628V88.4586H18.9087L18.9099 88.3253L18.9111 88.1944L18.9135 88.0635L18.9172 87.9301L18.922 87.7968L18.9281 87.6635L18.9353 87.5301L18.9438 87.4005L18.9535 87.2708L18.9644 87.1411L18.9765 87.009L18.9898 86.8744L19.0043 86.7459L19.0188 86.6175L19.0358 86.4853L19.0539 86.3569L19.0733 86.226L19.0939 86.0951L19.1157 85.9678L19.1387 85.8381L19.1629 85.7108L19.1871 85.5848L19.2137 85.4527L19.2404 85.3266L19.2682 85.2006L19.2985 85.0697L19.3287 84.9448L19.3602 84.82L19.3941 84.6927L19.428 84.5691L19.4643 84.443L19.5018 84.3182L19.503 84.323Z" fill="#374047"/>
<path d="M4.20268 52.701H0L0.0169463 51.8235L0.0653642 50.9544L0.145254 50.0926L0.256615 49.2406L0.398237 48.3982L0.571332 47.5655L0.773476 46.7449L1.00467 45.9352L1.26371 45.1389L1.55058 44.3547L1.86409 43.5838L2.20423 42.8275L2.57099 42.0857L2.96318 41.3597L3.37957 40.6494L3.82139 39.9549L4.2862 39.2786L4.77401 38.6204L5.28361 37.9792L5.8162 37.3574L6.36938 36.755L6.94313 36.172L7.53746 35.6109L8.15116 35.0703L8.78422 34.5515L9.43544 34.0546L10.106 33.5794L10.7936 33.1285L11.4968 32.7019L12.2171 32.2995L12.953 31.9213L13.7047 31.5698L15.4163 35.4133L14.8014 35.7006L14.1998 36.0084L13.6103 36.3381L13.0341 36.6872L12.4712 37.0569L11.9229 37.4447L11.3891 37.852L10.8698 38.2774L10.3675 38.7198L9.88089 39.1804L9.41124 39.6567L8.95732 40.15L8.52156 40.6591L8.10395 41.1839L7.7045 41.7233L7.32442 42.2772L6.96371 42.8445L6.62236 43.4251L6.30159 44.0178L6.00261 44.6238L5.72421 45.2419L5.46759 45.871L5.23277 46.511L5.02094 47.1619L4.83211 47.8224L4.66749 48.4927L4.52708 49.1727L4.41087 49.8611L4.32009 50.5581L4.25473 51.2635L4.21478 51.9774L4.20147 52.6986L4.20268 52.701ZM9.87 66.2156L6.9395 69.2324L6.93103 69.2239L6.53521 68.8239L6.15029 68.4155L5.77384 67.9973L5.40707 67.5694L5.0512 67.1343L4.70501 66.6895L4.36972 66.2362L4.04532 65.7756L3.73181 65.3065L3.43041 64.8289L3.1399 64.3441L2.8615 63.852L2.59399 63.3514L2.33859 62.8436L2.09529 62.3297L1.86409 61.8085L1.645 61.28L1.43922 60.7455L1.24676 60.2049L1.06641 59.6583L0.899363 59.1056L0.745636 58.5468L0.606435 57.9832L0.480548 57.4147L0.369187 56.8402L0.272351 56.2621L0.19004 55.6791L0.122255 55.0912L0.0689956 54.4997L0.0314717 53.9046L0.00847314 53.3058L0 52.7034H4.20268L4.20873 53.198L4.2281 53.6901L4.25957 54.1773L4.30314 54.6609L4.35882 55.1409L4.42661 55.6185L4.5065 56.0912L4.59728 56.5602L4.70017 57.0257L4.81395 57.4862L4.93863 57.942L5.0742 58.3941L5.22066 58.8401L5.37802 59.2825L5.54627 59.7189L5.72542 60.1504L5.91425 60.577L6.11397 60.9988L6.32338 61.4133L6.54247 61.823L6.77125 62.2266L7.00971 62.6242L7.25664 63.0157L7.51325 63.3999L7.77955 63.7781L8.05311 64.149L8.33636 64.5126L8.62808 64.8702L8.92827 65.2205L9.23693 65.5635L9.55407 65.8992L9.87847 66.2265L9.87 66.218V66.2156ZM6.9395 69.2324L6.93103 69.2239L6.92497 69.2178L6.9395 69.2324ZM17.399 70.7463L16.1341 74.7594L15.8048 74.6528L15.4792 74.5412L15.156 74.4261L14.834 74.3049L14.5157 74.18L14.1986 74.0504L13.8838 73.9158L13.574 73.7776L13.2653 73.6346L12.9578 73.4867L12.654 73.3352L12.3526 73.1789L12.0536 73.0189L11.7583 72.8553L11.4654 72.6868L11.1749 72.5147L10.888 72.3377L10.6023 72.1559L10.3215 71.9717L10.0443 71.7838L9.76832 71.5911L9.49597 71.3947L9.22725 71.1947L8.95974 70.9911L8.69586 70.7838L8.43561 70.5729L8.17779 70.3584L7.92359 70.1402L7.67303 69.9196L7.42489 69.6942L7.18038 69.4651L6.93829 69.2336L9.86878 66.2168L10.0673 66.4083L10.2682 66.5961L10.4716 66.7816L10.6798 66.9646L10.8892 67.144L11.0998 67.3197L11.3141 67.4931L11.5307 67.6628L11.7498 67.83L11.9713 67.9937L12.1941 68.1549L12.4204 68.3124L12.6504 68.4676L12.8816 68.6191L13.1128 68.7657L13.3488 68.91L13.5861 69.0518L13.8257 69.1888L14.0678 69.3233L14.3111 69.4542L14.5569 69.5815L14.805 69.7051L15.0543 69.8251L15.3073 69.9414L15.5627 70.0554L15.8181 70.1645L16.076 70.2699L16.3374 70.3729L16.5989 70.4711L16.864 70.5657L17.1303 70.6566L17.3978 70.7438L17.399 70.7463Z" fill="#374047"/>
<path d="M4.20187 33.764H8.40455V33.9216L8.40697 34.0792L8.4106 34.2379L8.41544 34.3943L8.4215 34.5507L8.42876 34.7082L8.43723 34.8634L8.44692 35.0185L8.45781 35.1773L8.46991 35.3324L8.48323 35.4864L8.49775 35.6415L8.51349 35.7967L8.53044 35.9506L8.5498 36.1045L8.56917 36.2585L8.59096 36.4112L8.61275 36.5639L8.63575 36.7142L8.66116 36.8669L8.68779 37.0196L8.71442 37.1687L8.74227 37.3178L8.77132 37.4693L8.80158 37.6196L8.83305 37.7675L8.86573 37.9141L8.89962 38.0632L8.93352 38.2087L8.96983 38.3553L9.00735 38.502L9.04609 38.6474L4.98745 39.7371L4.94025 39.5577L4.89546 39.3795L4.85067 39.2001L4.8071 39.0183L4.76594 38.8389L4.726 38.6559L4.68726 38.4729L4.65095 38.2911L4.61585 38.1093L4.58074 37.925L4.54685 37.7384L4.51659 37.5554L4.48633 37.3711L4.45728 37.1833L4.43065 36.9966L4.40523 36.8087L4.38102 36.6209L4.35802 36.433L4.33623 36.2451L4.31687 36.0572L4.29871 35.8682L4.28176 35.6779L4.26724 35.4864L4.25392 35.2985L4.24182 35.107L4.23214 34.9155L4.22366 34.7252L4.2164 34.5325L4.21035 34.3398L4.20672 34.1482L4.20429 33.9555L4.20308 33.7628L4.20187 33.764ZM20.8927 11.5444L22.0548 15.5879L21.3225 15.8145L20.6034 16.0715L19.8978 16.3551L19.2066 16.6666L18.5299 17.0048L17.869 17.3684L17.2251 17.7587L16.5981 18.1732L15.988 18.612L15.3961 19.0738L14.8236 19.5586L14.2704 20.0652L13.7378 20.5937L13.2258 21.1428L12.7367 21.7112L12.2695 22.2991L11.8253 22.9051L11.4053 23.5293L11.0106 24.1705L10.6402 24.8287L10.2965 25.5014L9.97813 26.1898L9.68762 26.8928L9.42496 27.6104L9.19013 28.34L8.98435 29.0818L8.80884 29.8357L8.66359 30.6005L8.5498 31.3762L8.46749 32.1629L8.41787 32.958L8.40092 33.7628H4.19824L4.21882 32.7822L4.28055 31.8102L4.38102 30.8502L4.52022 29.9012L4.69816 28.9642L4.91362 28.0418L5.16539 27.1328L5.45227 26.2395L5.77425 25.362L6.13012 24.5014L6.51867 23.659L6.93991 22.8348L7.39262 22.0312L7.87558 21.247L8.38881 20.4846L8.9311 19.744L9.50122 19.0265L10.0992 18.332L10.7226 17.6617L11.3726 17.0169L12.0468 16.3987L12.7452 15.806L13.4679 15.2412L14.2123 14.7055L14.9797 14.1988L15.7677 13.7225L16.5751 13.2764L17.403 12.8619L18.2491 12.4801L19.1122 12.1323L19.9934 11.8183L20.8903 11.5396L20.8927 11.5444Z" fill="#374047"/>
<path d="M8.40483 75.844H4.20215L4.20457 75.5349L4.21183 75.2258L4.22394 74.918L4.24088 74.6113L4.26267 74.3059L4.2893 74.0029L4.32077 73.7011L4.35709 73.4005L4.39824 73.1011L4.44424 72.8029L4.49508 72.5047L4.55076 72.209L4.61007 71.9157L4.67422 71.6236L4.74322 71.3339L4.81585 71.0454L4.89331 70.757L4.97562 70.4721L5.06157 70.1897L5.15235 69.9073L5.24798 69.6273L5.34723 69.3497L5.45133 69.0746L5.55906 68.8019L5.67042 68.5304L5.78663 68.2613L5.90767 67.9946L6.03235 67.7304L6.16065 67.4674L6.2938 67.208L6.42937 66.9511L6.56979 66.6953L10.2338 68.7558L10.1261 68.9522L10.0208 69.151L9.91789 69.3522L9.81863 69.5534L9.723 69.7582L9.6298 69.9643L9.54023 70.1715L9.45307 70.3812L9.36955 70.5921L9.28966 70.8054L9.21219 71.02L9.13836 71.2357L9.06815 71.4527L9.00158 71.6733L8.93742 71.8939L8.87811 72.1157L8.82122 72.3399L8.76796 72.5654L8.71833 72.792L8.67233 73.0199L8.62997 73.249L8.59123 73.478L8.55613 73.7095L8.52466 73.9423L8.49682 74.1762L8.47261 74.4113L8.45203 74.6489L8.43509 74.8865L8.42177 75.1252L8.41209 75.3652L8.40603 75.6052L8.40483 75.8476V75.844ZM21.8941 90.5149L21.5576 94.7098L20.6534 94.6153L19.7625 94.4783L18.8849 94.3001L18.0218 94.082L17.1757 93.825L16.3466 93.5293L15.5356 93.1972L14.7439 92.8287L13.9729 92.4251L13.2236 91.9875L12.4974 91.5172L11.7941 91.0154L11.115 90.4833L10.4614 89.9209L9.83436 89.3295L9.23519 88.7101L8.66386 88.0641L8.12279 87.3926L7.61198 86.6956L7.13264 85.9757L6.68478 85.2327L6.2708 84.4666L5.89193 83.6812L5.54817 82.8752L5.24071 82.0498L4.97078 81.2074L4.73959 80.348L4.54834 79.4741L4.39824 78.5845L4.2893 77.6827L4.22394 76.7688L4.20215 75.8452H8.40483L8.42177 76.5676L8.47382 77.2803L8.55734 77.9821L8.67475 78.673L8.82364 79.3529L9.00279 80.0196L9.21219 80.6741L9.45065 81.3141L9.71816 81.9395L10.0135 82.5504L10.3355 83.1443L10.6829 83.7224L11.0557 84.2824L11.4539 84.8242L11.8752 85.3478L12.3194 85.8508L12.7854 86.3332L13.2732 86.7938L13.7816 87.2314L14.3094 87.6459L14.8565 88.0362L15.4218 88.4022L16.004 88.7416L16.602 89.0555L17.2169 89.3416L17.8463 89.5997L18.4903 89.8288L19.1463 90.0288L19.8157 90.1973L20.4972 90.3355L21.1896 90.4421L21.8941 90.5161V90.5149Z" fill="#374047"/>
<path d="M44.1239 16.9331H48.3265L48.3108 17.5803L48.2624 18.2203L48.1813 18.853L48.0711 19.4748L47.9295 20.0857L47.7601 20.6857L47.5615 21.2723L47.3352 21.8468L47.0834 22.4068L46.805 22.951L46.5012 23.4795L46.1732 23.9922L45.8221 24.4867L45.4481 24.9631L45.0523 25.4212L44.6347 25.8588L44.1977 26.2769L43.7414 26.6733L43.2645 27.0478L42.7706 27.3993L42.2598 27.7278L41.7308 28.032L41.1873 28.3108L40.6281 28.5641L40.0543 28.7896L39.4685 28.9883L38.8693 29.1592L38.258 29.3011L37.6371 29.4114L37.0064 29.4913L36.3673 29.541L35.7197 29.5568V25.3485L36.1555 25.3376L36.5828 25.3049L37.0028 25.2515L37.4168 25.1776L37.8223 25.0843L38.2205 24.9703L38.6103 24.8382L38.9916 24.6879L39.3632 24.5207L39.7251 24.334L40.0773 24.1316L40.4175 23.9122L40.7479 23.6771L41.0651 23.4274L41.3701 23.1631L41.663 22.8831L41.9426 22.591L42.2065 22.2856L42.4559 21.9668L42.6907 21.6371L42.9098 21.2953L43.1107 20.9438L43.2971 20.5802L43.4642 20.2081L43.6143 19.8263L43.7474 19.436L43.86 19.0385L43.9532 18.6312L44.027 18.2179L44.0803 17.7973L44.113 17.3682L44.1239 16.9331Z" fill="#374047"/>
<path d="M27.3139 61.115V65.3233L26.9895 65.3197L26.6675 65.3076L26.3479 65.287L26.0284 65.2591L25.7124 65.2227L25.3977 65.1791L25.0854 65.127L24.7768 65.0676L24.4705 65.0009L24.1655 64.9258L23.8653 64.8445L23.57 64.7561L23.2734 64.6603L22.9817 64.5573L22.6948 64.4482L22.4103 64.3318L22.1295 64.2094L21.8511 64.0797L21.5776 63.944L21.3076 63.8022L21.0401 63.6531L20.7787 63.4992L20.5208 63.3392L20.2679 63.1731L20.0173 63.001L19.7716 62.8228L19.5319 62.6398L19.2959 62.4507L19.0635 62.2556L18.8371 62.0568L18.6156 61.8532L18.3989 61.6435L21.3536 58.6509L21.4989 58.7915L21.649 58.9297L21.8015 59.0642L21.9564 59.1939L22.115 59.3199L22.2772 59.4436L22.4406 59.5624L22.6077 59.6775L22.7783 59.789L22.9514 59.8969L23.1269 59.9999L23.3037 60.0981L23.484 60.1926L23.6668 60.2835L23.852 60.3696L24.0396 60.4508L24.2296 60.5284L24.4233 60.6011L24.617 60.669L24.8119 60.732L25.0128 60.7914L25.2137 60.8459L25.4147 60.8944L25.6192 60.9393L25.8262 60.9793L26.0332 61.0132L26.2426 61.0423L26.4545 61.0665L26.6663 61.0859L26.8817 61.0993L27.0984 61.1077L27.3163 61.1102L27.3139 61.115ZM33.2741 58.6521L36.23 61.6435L36.0121 61.8544L35.7906 62.058L35.5643 62.2568L35.3319 62.4519L35.0958 62.641L34.8562 62.824L34.6117 63.0022L34.3611 63.1743L34.1081 63.3404L33.8515 63.5004L33.5888 63.6555L33.3225 63.8046L33.0526 63.9464L32.779 64.0822L32.5006 64.2119L32.2198 64.3343L31.9354 64.4506L31.6485 64.5597L31.3555 64.6627L31.0602 64.7585L30.7636 64.847L30.4634 64.9282L30.1584 65.0033L29.8522 65.07L29.5435 65.1294L29.2312 65.1815L28.9177 65.2251L28.6018 65.2615L28.2822 65.2894L27.9627 65.31L27.6407 65.3221L27.3163 65.3257V61.1174L27.5342 61.115L27.7508 61.1065L27.9663 61.0932L28.1781 61.0738L28.39 61.0496L28.5994 61.0205L28.8063 60.9865L29.0133 60.9465L29.2179 60.9017L29.4188 60.8532L29.6198 60.7987L29.8195 60.7393L30.0144 60.6762L30.208 60.6084L30.4005 60.5356L30.5905 60.4581L30.7782 60.3769L30.9634 60.2908L31.1461 60.1999L31.3265 60.1054L31.5044 60.006L31.68 59.9029L31.853 59.7951L32.0249 59.6836L32.1908 59.5696L32.3554 59.4508L32.5176 59.3272L32.6761 59.2012L32.8311 59.0715L32.9836 58.9369L33.1337 58.7987L33.279 58.6582L33.2741 58.6521Z" fill="#374047"/>
<path d="M37.6531 44.31L33.4903 44.8894L33.4334 44.5258L33.3645 44.167L33.2821 43.8119L33.1889 43.4616L33.0836 43.1161L32.9662 42.7768L32.8379 42.4422L32.6987 42.1125L32.5486 41.7889L32.3876 41.4726L32.2157 41.1611L32.0342 40.8568L31.8417 40.5587L31.6408 40.2666L31.4302 39.9829L31.2099 39.7066L30.9799 39.4375L30.7414 39.1757L30.4945 38.9224L30.2391 38.6788L29.9764 38.4424L29.7041 38.2145L29.4257 37.9964L29.14 37.7891L28.8471 37.5891L28.5469 37.4L28.2406 37.2219L27.9271 37.0522L27.6088 36.8946L27.2832 36.7467L26.9527 36.6098L26.6162 36.4849L28.0131 32.5166L28.4864 32.6924L28.9512 32.8851L29.4075 33.0911L29.8554 33.3141L30.2948 33.5505L30.7245 33.8014L31.1457 34.0668L31.5548 34.3444L31.9567 34.6377L32.3465 34.942L32.7253 35.2595L33.0933 35.5892L33.4516 35.9322L33.7966 36.2861L34.1295 36.651L34.4502 37.0267L34.7589 37.4146L35.0542 37.8133L35.3363 38.2206L35.605 38.6388L35.8604 39.0654L36.1013 39.503L36.3276 39.949L36.5382 40.4035L36.7343 40.8653L36.9147 41.3368L37.0793 41.8156L37.2282 42.3016L37.3601 42.7937L37.4751 43.2931L37.5732 43.7985L37.6531 44.31Z" fill="#374047"/>
<path d="M24.9478 74.6241L21.8672 71.7624L22.0609 71.5478L22.2497 71.3297L22.4337 71.1079L22.6128 70.8812L22.7859 70.6521L22.953 70.4182L23.1164 70.1806L23.2737 69.9394L23.425 69.6946L23.5715 69.4473L23.7119 69.1964L23.8463 68.9419L23.9746 68.6825L24.0968 68.4219L24.2142 68.1577L24.3244 67.8898L24.4297 67.6195L24.5278 67.3456L24.6197 67.068L24.7057 66.7893L24.7856 66.5069L24.8582 66.2208L24.9248 65.9323L24.9841 65.6426L25.0374 65.3481L25.0846 65.0524L25.1233 64.7542L25.156 64.4512L25.1814 64.1482L25.1996 63.8403L25.2104 63.5324L25.2141 63.2197H29.4168L29.4119 63.6318L29.3974 64.0415L29.3732 64.4488L29.3393 64.8536L29.2957 65.2548L29.2437 65.6523L29.1819 66.0487L29.1105 66.4414L29.0306 66.8305L28.941 67.2171L28.8442 67.5989L28.7365 67.9783L28.6215 68.354L28.498 68.7237L28.3661 69.091L28.2257 69.4546L28.078 69.8134L27.9206 70.1685L27.756 70.5188L27.5841 70.8642L27.4038 71.2048L27.2162 71.5418L27.0213 71.8739L26.8179 72.1999L26.6085 72.5211L26.3918 72.8375L26.1679 73.149L25.9367 73.4556L25.7007 73.7562L25.4562 74.0508L25.2044 74.3404L24.9478 74.6241Z" fill="#374047"/>
<path d="M75.6408 8.51808H56.73V4.31104H75.6408V8.51808Z" fill="#374047"/>
<path d="M79.8421 16.9321H71.438V12.7251H79.8421V16.9321Z" fill="#374047"/>
<path d="M67.2355 16.9321H52.5273V12.7251H67.2355V16.9321Z" fill="#374047"/>
<path d="M90.348 25.3477H86.1465V21.1406H90.348V25.3477Z" fill="#374047"/>
<path d="M81.9436 25.3482H52.5273V21.1411H81.9436V25.3482Z" fill="#374047"/>
<path d="M94.5511 33.7632H88.2471V29.5562H94.5511V33.7632Z" fill="#374047"/>
<path d="M84.045 33.7632H52.5273V29.5562H84.045V33.7632Z" fill="#374047"/>
<path d="M94.5499 42.1802H84.0444V37.9731H94.5499V42.1802Z" fill="#374047"/>
<path d="M79.8423 42.1807H52.5273V37.9736H79.8423V42.1807Z" fill="#374047"/>
<path d="M94.5511 75.8423H88.2471V71.6353H94.5511V75.8423Z" fill="#374047"/>
<path d="M84.0455 75.8423H79.8428V71.6353H84.0455V75.8423Z" fill="#374047"/>
<path d="M75.6409 75.8423H52.5273V71.6353H75.6409V75.8423Z" fill="#374047"/>
<path d="M88.2459 92.6728H84.0444V88.4658H88.2459V92.6728Z" fill="#374047"/>
<path d="M79.8421 92.6728H75.6406V88.4658H79.8421V92.6728Z" fill="#374047"/>
<path d="M71.4382 92.6728H52.5273V88.4658H71.4382V92.6728Z" fill="#374047"/>
<path d="M77.7407 101.089H58.8311V96.8818H77.7407V101.089Z" fill="#374047"/>
<path d="M98.7527 50.5952H94.5513V46.3882H98.7527V50.5952Z" fill="#374047"/>
<path d="M90.3471 50.5947H77.7402V46.3877H90.3471V50.5947Z" fill="#374047"/>
<path d="M73.5395 50.5952H52.5273V46.3882H73.5395V50.5952Z" fill="#374047"/>
<path d="M96.6502 84.2583H92.4463V80.0513H96.6502V84.2583Z" fill="#374047"/>
<path d="M88.2465 84.2583H52.5273V80.0513H88.2465V84.2583Z" fill="#374047"/>
<path d="M98.7527 67.4268H94.5513V63.2197H98.7527V67.4268Z" fill="#374047"/>
<path d="M90.3476 67.4268H75.6406V63.2197H90.3476V67.4268Z" fill="#374047"/>
<path d="M71.4382 67.4268H52.5273V63.2197H71.4382V67.4268Z" fill="#374047"/>
<path d="M100.854 59.0102H94.5513V54.8032H100.854V59.0102Z" fill="#374047"/>
<path d="M90.348 59.0102H86.1465V54.8032H90.348V59.0102Z" fill="#374047"/>
<path d="M81.9436 59.0102H52.5273V54.8032H81.9436V59.0102Z" fill="#374047"/>
</svg>
