<svg width="150" height="150" viewBox="0 0 150 150" fill="none" xmlns="http://www.w3.org/2000/svg">
<path d="M51.8002 55.4999H43.1502C38.7501 55.4999 35.2002 59.0498 35.2002 63.4498V70.8998C35.2002 75.2998 38.7501 78.8497 43.1502 78.8497H54.4502" stroke="#EB4549" stroke-width="4.61984" stroke-miterlimit="22.9256"/>
<path d="M97.6002 55.4999H106.5C110.9 55.4999 114.45 59.0498 114.45 63.4499V70.8998C114.45 75.2998 110.9 78.8497 106.5 78.8497L95.0501 78.7997C96.85 73.0497 97.8 66.8496 97.8 60.8497C97.8 41.9996 88.75 32.6497 74.65 32.6497C60.55 32.6497 51.5 41.9498 51.5 60.8497C51.5 79.7497 61.2999 101 74.65 101C80.6501 101 85.9501 96.6497 89.95 90.1996" stroke="#EB4549" stroke-width="4.61984" stroke-miterlimit="22.9256"/>
<path d="M82.2002 82.2001V88.2001C82.2002 89.3002 83.1001 90.1502 84.1503 90.1502H100.8C100.8 90.1502 107.85 90.3503 107.85 78.7002" stroke="#EB4549" stroke-width="4.61984" stroke-miterlimit="22.9256"/>
<path d="M42.3501 55.1499C42.3501 34.5998 51.1001 17.9998 75.2001 17.9998C99.3001 17.9998 108.05 34.5998 108.05 55.1499" stroke="#EB4549" stroke-width="4.61984" stroke-miterlimit="22.9256"/>
<path d="M94.9499 104.65C94.9499 104.65 101.25 114.25 109.55 114C120.7 113.7 125.2 115.75 128.4 131.95H21C24.2001 115.75 28.7001 113.65 39.8501 114C48.2002 114.25 54.4502 104.65 54.4502 104.65" stroke="#EB4549" stroke-width="4.61984" stroke-miterlimit="22.9256"/>
<path d="M82.7499 107.95L82.2999 116.65H67.0999L66.6499 107.95" stroke="#EB4549" stroke-width="4.61984" stroke-miterlimit="22.9256"/>
<path fill-rule="evenodd" clip-rule="evenodd" d="M81.8 132H67.6001L70.4501 116.65H78.95L81.8 132Z" stroke="#EB4549" stroke-width="4.61984" stroke-miterlimit="22.9256"/>
</svg>
