<svg width="150" height="150" viewBox="0 0 150 150" fill="none" xmlns="http://www.w3.org/2000/svg">
<path fill-rule="evenodd" clip-rule="evenodd" d="M79.1997 19.25C83.0497 16.75 88.2497 18.1501 90.3497 22.2501C91.7497 24.9501 94.5997 26.6001 97.6497 26.4501C102.25 26.2501 106 30.0001 105.8 34.6001C105.65 37.6502 107.3 40.5001 110 41.9002C114.1 44.0001 115.45 49.1502 113 53.0502C111.35 55.6002 111.35 58.9002 113 61.4502C115.5 65.3002 114.1 70.5002 110 72.6002C107.3 74.0002 105.65 76.8502 105.8 79.9002C106 84.5002 102.25 88.2502 97.6497 88.0503C94.5997 87.9003 91.7497 89.5503 90.3497 92.2503C88.2497 96.3503 83.0996 97.7002 79.1997 95.2503C76.6497 93.6003 73.3497 93.6003 70.7997 95.2503C66.9496 97.7503 61.7497 96.3503 59.6497 92.2503C58.2497 89.5503 55.3997 87.9003 52.3497 88.0503C47.7497 88.2502 43.9996 84.5003 44.1996 79.9002C44.3496 76.8502 42.6996 74.0002 39.9996 72.6002C35.8996 70.5002 34.5496 65.3501 36.9996 61.4502C38.6496 58.9002 38.6496 55.6002 36.9996 53.0502C34.4996 49.2001 35.8996 44.0001 39.9996 41.9002C42.6996 40.5001 44.3496 37.6502 44.1996 34.6001C43.9996 30.0002 47.7496 26.2001 52.3497 26.4501C55.3997 26.6001 58.2497 24.9501 59.6497 22.2501C61.7497 18.1501 66.8997 16.8001 70.7997 19.25C73.3497 20.9001 76.6497 20.9001 79.1997 19.25V19.25Z" stroke="#EB4549" stroke-width="4.61996" stroke-miterlimit="22.9256"/>
<path d="M74.9994 83.3001C89.4141 83.3001 101.099 71.6147 101.099 57.2C101.099 42.7854 89.4141 31.1 74.9994 31.1C60.5848 31.1 48.8994 42.7854 48.8994 57.2C48.8994 71.6147 60.5848 83.3001 74.9994 83.3001Z" stroke="#EB4549" stroke-width="4.61996" stroke-miterlimit="22.9256"/>
<path d="M59.75 55.5L72.35 67.9501L90.85 49.7501" stroke="#EB4549" stroke-width="4.61996" stroke-miterlimit="22.9256"/>
<path d="M78.3992 94.75L60.9493 132L55.3492 112.35L36.6992 120.7L51.9492 88.05" stroke="#EB4549" stroke-width="4.61996" stroke-miterlimit="22.9256"/>
<path d="M74.7002 102.65L88.5002 132L94.0502 112.35L112.7 120.7L97.4502 88.05" stroke="#EB4549" stroke-width="4.61996" stroke-miterlimit="22.9256"/>
</svg>
