<svg width="150" height="150" viewBox="0 0 150 150" fill="none" xmlns="http://www.w3.org/2000/svg">
<path d="M140.5 15.5H130.2V58.55H140.5" stroke="#EB4549" stroke-width="4.61994" stroke-miterlimit="22.9256"/>
<path d="M33.0001 134.5L41.6501 128.9L18.1001 92.8L9.5 98.4" stroke="#EB4549" stroke-width="4.61994" stroke-miterlimit="22.9256"/>
<path d="M63.05 35.5499C55.3499 27.5999 51.7999 16.7999 51.7999 16.7999L17.8999 46.5499C17.8999 46.5499 27.6999 71.3999 51.6999 83.2" stroke="#EB4549" stroke-width="4.61994" stroke-miterlimit="22.9256"/>
<path d="M87.7999 35.5499H61.2999C56.4998 35.5499 52.5498 39.4499 52.5498 44.3C52.5498 49.1 56.4498 53.05 61.2999 53.05H91.3999C91.3999 53.05 97.8499 58.6 107.15 58.6C112.3 58.6 116.8 56.8999 119.85 55.4C122.9 53.8999 126.25 53.05 129.65 53.05H130.2" stroke="#EB4549" stroke-width="4.61994" stroke-miterlimit="22.9256"/>
<path d="M56.6001 26.95L64.0501 21.55C66.8001 19.55 70.05 18.5 73.45 18.5H88.4C91.75 18.5 95.1 18.75 98.45 19.25C106.7 20.5001 123.35 22.7 130.25 21.9" stroke="#EB4549" stroke-width="4.61994" stroke-miterlimit="22.9256"/>
<path d="M91.3501 53C91.3501 53 102.45 58.5499 114.5 77.1499L93.4002 95.0999" stroke="#EB4549" stroke-width="4.61994" stroke-miterlimit="22.9256"/>
<path d="M22.3999 99.35L43.4499 85.55C45.7998 83.9999 48.4999 83.2001 51.2999 83.2001H83.2999C87.7499 83.2001 91.3499 86.8001 91.3499 91.2501C91.3499 95.7001 87.7499 99.3001 83.2999 99.3001H63.0499" stroke="#EB4549" stroke-width="4.61994" stroke-miterlimit="22.9256"/>
<path d="M38.2002 123.55L45.8502 118.5C47.7001 117.3 49.8502 116.65 52.1002 116.65H84.3501C87.3001 116.65 90.2001 116.05 92.9002 114.8L124.6 100.55C128.7 98.7 130.55 93.95 128.8 89.85C127.05 85.7 122.35 83.75 118.2 85.3499L89.3002 96.7" stroke="#EB4549" stroke-width="4.61994" stroke-miterlimit="22.9256"/>
<path d="M77.3 53C79.9499 57.6 78.7 64.55 73.9 69.8999C68.2501 76.1999 59.85 77.9 55.1 73.6499C50.3499 69.3999 51.1 60.8499 56.75 54.5499C57.5501 53.6499 57.8501 53.2999 58.75 52.6" stroke="#EB4549" stroke-width="4.61994" stroke-miterlimit="22.9256"/>
<path d="M45.0503 35.5499L34.8504 44.8499C34.8504 44.8499 36.4504 50.1999 33.0503 54.1498C33.0503 54.1498 36.9503 61.4498 41.6003 64.0497" stroke="#EB4549" stroke-width="4.61994" stroke-miterlimit="22.9256"/>
<path d="M88.8999 61.2499L97.95 69.9499C97.95 69.9499 95.4 73.3499 96.9499 78.3L88.8999 85.45" stroke="#EB4549" stroke-width="4.61994" stroke-miterlimit="22.9256"/>
</svg>
