<svg width="30" height="30" viewBox="0 0 30 30" fill="none" xmlns="http://www.w3.org/2000/svg">
<path d="M26.5397 29.989H26.3436C3.67887 28.6856 0.46082 9.56186 0.0109861 3.72555C-0.0252598 3.27177 0.0283897 2.8153 0.168861 2.38229C0.309331 1.94928 0.533863 1.54824 0.829589 1.20216C1.12532 0.85607 1.48643 0.571737 1.89223 0.365449C2.29803 0.159162 2.74055 0.0349738 3.19443 1.08144e-06H9.54978C10.0118 -0.000446173 10.4633 0.137846 10.8458 0.396965C11.2283 0.656083 11.5242 1.02409 11.6951 1.45331L13.4483 5.76711C13.6172 6.18643 13.659 6.64611 13.5688 7.08903C13.4786 7.53196 13.2602 7.93862 12.9408 8.2585L10.4841 10.7384C10.8678 12.9192 11.9122 14.9295 13.4759 16.4973C15.0396 18.0652 17.0472 19.1148 19.227 19.5044L21.7299 17.0245C22.0546 16.7086 22.4651 16.4954 22.9102 16.4113C23.3553 16.3272 23.8153 16.376 24.2328 16.5516L28.5812 18.2933C29.004 18.4696 29.3647 18.7678 29.6173 19.1499C29.87 19.5319 30.0032 19.9806 29.9999 20.4386V26.5287C29.9999 27.4464 29.6354 28.3265 28.9865 28.9755C28.3375 29.6244 27.4574 29.989 26.5397 29.989ZM3.47125 2.30684C3.16534 2.30684 2.87197 2.42836 2.65566 2.64467C2.43935 2.86098 2.31783 3.15436 2.31783 3.46027V3.55254C2.8484 10.3808 6.251 26.5287 26.4705 27.6821C26.622 27.6915 26.7739 27.6708 26.9174 27.6214C27.061 27.5719 27.1933 27.4946 27.3069 27.3939C27.4205 27.2931 27.5131 27.171 27.5794 27.0344C27.6456 26.8978 27.6843 26.7495 27.6931 26.5979V20.4386L23.3447 18.697L20.0344 21.9842L19.4807 21.915C9.44597 20.6578 8.08494 10.623 8.08494 10.5192L8.01573 9.96556L11.2914 6.65524L9.56132 2.30684H3.47125Z" fill="white"/>
</svg>
