<svg width="150" height="150" viewBox="0 0 150 150" fill="none" xmlns="http://www.w3.org/2000/svg">
<path d="M54.9679 70.8798C53.2312 64.3121 52.2646 57.1508 52.2646 50.2683C52.2646 28.6205 61.1047 17.9326 74.8395 17.9326C88.5743 17.9326 97.4144 28.621 97.4144 50.2683C97.4144 71.9161 87.8515 96.3256 74.8395 96.3256C68.9733 96.3256 63.8075 91.3641 59.9037 83.9303M94.7101 70.8798C96.4468 64.3126 97.4134 57.1508 97.4134 50.2683C97.4134 28.6205 88.5734 17.9321 74.8385 17.9321C61.1042 17.9321 52.2637 28.6205 52.2637 50.2683C52.2637 71.9156 61.8266 96.3256 74.8385 96.3256C80.7048 96.3256 85.8706 91.3641 89.7744 83.9303L94.7101 70.8798ZM94.7101 70.8798C96.4468 64.3121 97.4139 57.1508 97.4139 50.2683C97.4139 28.6205 88.5739 17.9326 74.839 17.9326C61.1042 17.9326 52.2642 28.621 52.2642 50.2683C52.2642 71.9161 61.8271 96.3256 74.839 96.3256C80.7053 96.3256 85.8711 91.3641 89.7749 83.9303L94.7101 70.8798Z" stroke="#EB4549" stroke-width="4.61932" stroke-miterlimit="22.9256"/>
<path d="M94.5846 100.579C94.5846 100.579 100.707 111.592 108.839 111.319C119.688 110.954 124.097 113.339 127.195 131.932H22.4814C25.5796 113.339 29.9889 110.954 40.8376 111.319C48.9699 111.592 55.0915 100.579 55.0915 100.579" stroke="#EB4549" stroke-width="4.61932" stroke-miterlimit="22.9256"/>
<path d="M82.6977 104.324L82.2302 114.307H67.4464L66.9795 104.324" stroke="#EB4549" stroke-width="4.61932" stroke-miterlimit="22.9256"/>
<path d="M81.7644 131.933H67.9141L70.7153 114.307H78.9626L81.7644 131.933Z" stroke="#EB4549" stroke-width="4.61932" stroke-miterlimit="22.9256"/>
<path d="M31.1589 73.6911C30.5199 71.2744 30.1641 68.6394 30.1641 66.1072C30.1641 58.1421 33.4167 54.2095 38.4704 54.2095C43.524 54.2095 46.7767 58.1421 46.7767 66.1072C46.7767 74.0723 43.2579 83.0537 38.4704 83.0537C36.312 83.0537 34.411 81.2283 32.9751 78.4928M45.7823 73.6911C46.4213 71.2749 46.7772 68.6394 46.7772 66.1072C46.7772 58.1421 43.5245 54.2095 38.4709 54.2095C33.4172 54.2095 30.1646 58.1421 30.1646 66.1072C30.1646 74.0723 33.6833 83.0537 38.4709 83.0537C40.6292 83.0537 42.5302 81.2283 43.9661 78.4928L45.7823 73.6911ZM45.7823 73.6911C46.4213 71.2744 46.7772 68.6394 46.7772 66.1072C46.7772 58.1421 43.5245 54.2095 38.4709 54.2095C33.4172 54.2095 30.1646 58.1421 30.1646 66.1072C30.1646 74.0723 33.6833 83.0537 38.4709 83.0537C40.6292 83.0537 42.5302 81.2283 43.9661 78.4928L45.7823 73.6911Z" stroke="#EB4549" stroke-width="4.61932" stroke-miterlimit="22.9256"/>
<path d="M45.7364 84.6188C45.7364 84.6188 47.9888 88.6708 50.9812 88.5704C54.9727 88.4363 56.5954 89.3137 57.735 96.1553H19.2061C20.3462 89.3142 21.9683 88.4363 25.9599 88.5704C28.9522 88.6713 31.2046 84.6188 31.2046 84.6188" stroke="#EB4549" stroke-width="4.61932" stroke-miterlimit="22.9256"/>
<path d="M41.3625 85.9968L41.1904 89.6701H35.7507L35.5791 85.9968" stroke="#EB4549" stroke-width="4.61932" stroke-miterlimit="22.9256"/>
<path d="M41.0189 96.1548H35.9229L36.9538 89.67H39.988L41.0189 96.1548Z" stroke="#EB4549" stroke-width="4.61932" stroke-miterlimit="22.9256"/>
<path d="M104.03 73.6911C103.391 71.2744 103.035 68.6394 103.035 66.1072C103.035 58.1421 106.288 54.2095 111.341 54.2095C116.395 54.2095 119.648 58.1421 119.648 66.1072C119.648 74.0723 116.129 83.0537 111.341 83.0537C109.183 83.0537 107.282 81.2283 105.846 78.4928M118.653 73.6911C119.292 71.2749 119.648 68.6394 119.648 66.1072C119.648 58.1421 116.396 54.2095 111.342 54.2095C106.288 54.2095 103.036 58.1421 103.036 66.1072C103.036 74.0723 106.554 83.0537 111.342 83.0537C113.5 83.0537 115.401 81.2283 116.837 78.4928L118.653 73.6911ZM118.653 73.6911C119.292 71.2744 119.648 68.6394 119.648 66.1072C119.648 58.1421 116.396 54.2095 111.342 54.2095C106.288 54.2095 103.036 58.1421 103.036 66.1072C103.036 74.0723 106.554 83.0537 111.342 83.0537C113.5 83.0537 115.401 81.2283 116.837 78.4928L118.653 73.6911Z" stroke="#EB4549" stroke-width="4.61932" stroke-miterlimit="22.9256"/>
<path d="M118.608 84.6188C118.608 84.6188 120.861 88.6708 123.853 88.5704C127.845 88.4363 129.467 89.3137 130.607 96.1553H92.0781C93.2177 89.3142 94.8404 88.4363 98.832 88.5704C101.824 88.6713 104.077 84.6188 104.077 84.6188" stroke="#EB4549" stroke-width="4.61932" stroke-miterlimit="22.9256"/>
<path d="M114.234 85.9968L114.062 89.6701H108.622L108.45 85.9968" stroke="#EB4549" stroke-width="4.61932" stroke-miterlimit="22.9256"/>
<path d="M113.89 96.1548H108.794L109.825 89.67H112.859L113.89 96.1548Z" stroke="#EB4549" stroke-width="4.61932" stroke-miterlimit="22.9256"/>
</svg>
