<svg width="35" height="35" viewBox="0 0 35 35" fill="none" xmlns="http://www.w3.org/2000/svg">
<path d="M24.0594 20.3613C23.7045 20.179 21.937 19.3131 21.6082 19.1959C21.2794 19.0722 21.0386 19.0136 20.8009 19.3782C20.5601 19.7396 19.8765 20.5436 19.6616 20.7877C19.4533 21.0286 19.2417 21.0579 18.8869 20.8789C16.7776 19.8242 15.3941 18.9974 14.0042 16.6113C13.6363 15.9766 14.372 16.0222 15.0588 14.6517C15.176 14.4108 15.1174 14.2058 15.0263 14.0235C14.9351 13.8412 14.219 12.0769 13.9195 11.3575C13.6298 10.6576 13.3304 10.7553 13.1123 10.7423C12.9039 10.7292 12.6663 10.7292 12.4254 10.7292C12.1845 10.7292 11.7972 10.8204 11.4684 11.1752C11.1396 11.5365 10.2119 12.4057 10.2119 14.17C10.2119 15.9343 11.4977 17.6432 11.6735 17.8841C11.8558 18.125 14.2027 21.7447 17.8062 23.304C20.0848 24.287 20.9767 24.3717 22.116 24.2024C22.8094 24.0982 24.2384 23.3365 24.5346 22.4934C24.8308 21.6536 24.8308 20.9342 24.7429 20.7845C24.655 20.625 24.4142 20.5338 24.0594 20.3613Z" fill="#EB4549"/>
<path d="M30.9507 11.8489C30.215 10.1009 29.1603 8.53191 27.816 7.18427C26.4716 5.83989 24.9026 4.78196 23.1513 4.04955C21.361 3.2976 19.4599 2.91675 17.5003 2.91675H17.4352C15.4626 2.92651 13.5518 3.31713 11.755 4.08535C10.02 4.82753 8.46398 5.8822 7.13262 7.22659C5.80126 8.57097 4.75635 10.1335 4.0337 11.875C3.28501 13.6783 2.90741 15.5956 2.91718 17.5683C2.92694 19.8273 3.4673 22.0702 4.47966 24.0753V29.0232C4.47966 29.85 5.15022 30.5206 5.97703 30.5206H10.9281C12.9333 31.5329 15.1761 32.0733 17.4352 32.083H17.5036C19.4534 32.083 21.3447 31.7054 23.1253 30.9665C24.8668 30.2406 26.4325 29.199 27.7736 27.8676C29.118 26.5362 30.176 24.9803 30.9149 23.2453C31.6831 21.4484 32.0737 19.5376 32.0835 17.565C32.0932 15.5826 31.7091 13.6588 30.9507 11.8489ZM26.0321 26.1066C23.7503 28.3656 20.7229 29.6091 17.5003 29.6091H17.445C15.4821 29.5993 13.5323 29.1111 11.8103 28.1931L11.5369 28.0466H6.95359V23.4634L6.8071 23.1899C5.88915 21.4679 5.40087 19.5181 5.3911 17.5552C5.37808 14.3098 6.6183 11.263 8.89367 8.9681C11.1658 6.67321 14.2028 5.4037 17.4482 5.39067H17.5036C19.1312 5.39067 20.7099 5.70643 22.1975 6.33142C23.6493 6.94013 24.9514 7.81577 26.0712 8.93555C27.1877 10.0521 28.0666 11.3574 28.6753 12.8092C29.3068 14.3131 29.6226 15.9081 29.6161 17.5552C29.5965 20.7974 28.3238 23.8345 26.0321 26.1066Z" fill="#EB4549"/>
</svg>
