<svg width="35" height="35" viewBox="0 0 35 35" fill="none" xmlns="http://www.w3.org/2000/svg">
<path d="M24.0594 20.361C23.7045 20.1788 21.937 19.3129 21.6082 19.1957C21.2794 19.072 21.0386 19.0134 20.8009 19.378C20.5601 19.7393 19.8765 20.5433 19.6616 20.7875C19.4533 21.0284 19.2417 21.0576 18.8869 20.8786C16.7776 19.8239 15.3941 18.9971 14.0042 16.6111C13.6363 15.9763 14.372 16.0219 15.0588 14.6515C15.176 14.4106 15.1174 14.2055 15.0263 14.0232C14.9351 13.8409 14.219 12.0766 13.9195 11.3573C13.6298 10.6574 13.3304 10.755 13.1123 10.742C12.9039 10.729 12.6663 10.729 12.4254 10.729C12.1845 10.729 11.7972 10.8201 11.4684 11.175C11.1396 11.5363 10.2119 12.4054 10.2119 14.1697C10.2119 15.934 11.4977 17.643 11.6735 17.8839C11.8558 18.1247 14.2027 21.7445 17.8062 23.3037C20.0848 24.2868 20.9767 24.3714 22.116 24.2021C22.8094 24.098 24.2384 23.3363 24.5346 22.4932C24.8308 21.6533 24.8308 20.934 24.7429 20.7842C24.655 20.6247 24.4142 20.5336 24.0594 20.361Z" fill="white"/>
<path d="M30.9507 11.8487C30.215 10.1007 29.1603 8.53167 27.816 7.18403C26.4716 5.83964 24.9026 4.78171 23.1513 4.0493C21.361 3.29736 19.4599 2.9165 17.5003 2.9165H17.4352C15.4626 2.92627 13.5518 3.31689 11.755 4.08511C10.02 4.82729 8.46398 5.88196 7.13262 7.22634C5.80126 8.57073 4.75635 10.1332 4.0337 11.8747C3.28501 13.6781 2.90741 15.5954 2.91718 17.568C2.92694 19.8271 3.4673 22.0699 4.47966 24.0751V29.0229C4.47966 29.8498 5.15022 30.5203 5.97703 30.5203H10.9281C12.9333 31.5327 15.1761 32.073 17.4352 32.0828H17.5036C19.4534 32.0828 21.3447 31.7052 23.1253 30.9663C24.8668 30.2404 26.4325 29.1987 27.7736 27.8674C29.118 26.536 30.176 24.98 30.9149 23.245C31.6831 21.4482 32.0737 19.5374 32.0835 17.5648C32.0932 15.5824 31.7091 13.6586 30.9507 11.8487V11.8487ZM26.0321 26.1063C23.7503 28.3654 20.7229 29.6089 17.5003 29.6089H17.445C15.4821 29.5991 13.5323 29.1108 11.8103 28.1929L11.5369 28.0464H6.95359V23.4631L6.8071 23.1897C5.88915 21.4677 5.40087 19.5179 5.3911 17.555C5.37808 14.3096 6.6183 11.2628 8.89367 8.96786C11.1658 6.67297 14.2028 5.40345 17.4482 5.39043H17.5036C19.1312 5.39043 20.7099 5.70618 22.1975 6.33117C23.6493 6.93989 24.9514 7.81553 26.0712 8.93531C27.1877 10.0518 28.0666 11.3572 28.6753 12.809C29.3068 14.3128 29.6226 15.9079 29.6161 17.555C29.5965 20.7971 28.3238 23.8342 26.0321 26.1063V26.1063Z" fill="white"/>
</svg>
