<svg width="35" height="35" viewBox="0 0 35 35" fill="none" xmlns="http://www.w3.org/2000/svg">
<path d="M17.5003 29.1668C20.5945 29.1667 23.562 27.9376 25.7499 25.7497C27.9378 23.5617 29.167 20.5943 29.167 17.5001C29.167 14.4059 27.9378 11.4384 25.7499 9.2505C23.562 7.06258 20.5945 5.83342 17.5003 5.83342C14.4061 5.83342 11.4387 7.06258 9.25075 9.2505C7.06282 11.4384 5.83366 14.4059 5.83366 17.5001C5.83366 20.5943 7.06282 23.5617 9.25075 25.7497C11.4387 27.9376 14.4061 29.1667 17.5003 29.1668ZM17.5003 32.0834C9.44595 32.0834 2.91699 25.5545 2.91699 17.5001C2.91699 9.44571 9.44595 2.91675 17.5003 2.91675C25.5547 2.91675 32.0837 9.44571 32.0837 17.5001C32.0837 25.5545 25.5547 32.0834 17.5003 32.0834ZM12.9649 19.2063L9.32199 18.0703C8.53449 17.8297 8.53012 17.2872 9.49845 16.8978L23.6924 11.4145C24.5164 11.079 24.983 11.5034 24.7162 12.5665L22.2997 23.9707C22.1305 24.783 21.642 24.977 20.9639 24.6022L17.2437 21.8488L15.5097 23.523C15.3318 23.6951 15.1874 23.8424 14.9132 23.8788C14.6405 23.9168 14.416 23.8351 14.2512 23.383L12.9824 19.1961L12.9649 19.2078V19.2063Z" fill="#EB4549"/>
</svg>
