<svg width="150" height="150" viewBox="0 0 150 150" fill="none" xmlns="http://www.w3.org/2000/svg">
<path d="M63 105.75L31.75 74.5L40.5625 65.625L63 88.0625L110.438 40.625L119.25 49.5L63 105.75ZM75.5 12C67.2924 12 59.1651 13.6166 51.5823 16.7575C43.9994 19.8984 37.1095 24.5022 31.3058 30.3058C19.5848 42.0268 13 57.924 13 74.5C13 91.076 19.5848 106.973 31.3058 118.694C37.1095 124.498 43.9994 129.102 51.5823 132.242C59.1651 135.383 67.2924 137 75.5 137C92.076 137 107.973 130.415 119.694 118.694C131.415 106.973 138 91.076 138 74.5C138 66.2924 136.383 58.1651 133.242 50.5823C130.102 42.9994 125.498 36.1095 119.694 30.3058C113.891 24.5022 107.001 19.8984 99.4177 16.7575C91.8349 13.6166 83.7076 12 75.5 12Z" fill="#2AC810"/>
</svg>
