<svg width="183" height="82" viewBox="0 0 183 82" fill="none" xmlns="http://www.w3.org/2000/svg">
<path d="M33.3405 37.2687H29.3969L17.3735 9.19115L5.1492 37.2687H1.20557L16.9946 1H17.802L33.3393 37.2687H33.3405ZM42.2785 10.4456V30.3139L61.9858 10.4456H62.2545V37.2687H58.8241V17.552L39.2681 37.2687H38.8481V10.4456H42.2785ZM73.3616 13.4758V37.2675H69.9312V10.4444H83.5003V13.4746H73.3604L73.3616 13.4758ZM114.819 10.4456V37.2687H111.389V32.6556C109.943 34.4155 108.329 35.7366 106.529 36.613C104.739 37.4881 102.771 37.9256 100.644 37.9256C96.86 37.9256 93.6233 36.5536 90.9421 33.8095C88.2598 31.0568 86.9234 27.7224 86.9234 23.782C86.9234 19.9349 88.2767 16.6345 90.9845 13.8988C93.6838 11.1632 96.9375 9.78991 100.746 9.78991C102.94 9.78991 104.924 10.2529 106.707 11.1789C108.482 12.105 110.045 13.5025 111.39 15.38V10.4469H114.821L114.819 10.4456ZM101.014 13.1231C99.0969 13.1231 97.3236 13.5946 95.7089 14.5376C94.0869 15.4721 92.8002 16.7944 91.8415 18.495C90.8828 20.1955 90.4035 21.9979 90.4035 23.8996C90.4035 25.7771 90.8828 27.5782 91.85 29.2957C92.8171 31.0132 94.1111 32.3513 95.7428 33.3028C97.3745 34.2628 99.1223 34.7427 100.989 34.7427C102.864 34.7427 104.654 34.2712 106.337 33.3198C108.026 32.3683 109.322 31.0884 110.229 29.4642C111.137 27.8473 111.591 26.0207 111.591 23.9917C111.591 20.9021 110.573 18.3168 108.531 16.2381C106.496 14.1582 103.991 13.1231 101.015 13.1231H101.014ZM4.73039 47.2537C7.27838 44.2987 10.4219 42.8175 14.1719 42.8175C17.1484 42.8175 19.6116 43.6769 21.5532 45.3932C23.4948 47.1022 24.4619 49.3251 24.4619 52.0523C24.4619 55.9079 22.6462 58.669 19.0137 60.3452C23.7889 61.8276 26.1771 65.0262 26.1771 69.9594C26.1771 73.2429 25.1095 75.8949 22.9743 77.8984C20.8306 79.9019 17.9049 80.9043 14.1876 80.9043C11.59 80.9043 9.32767 80.365 7.42 79.2874C5.50265 78.2099 3.69546 76.3239 2.00567 73.6295L4.80544 71.9714C6.48675 74.438 8.05913 76.0209 9.53103 76.7191C10.9945 77.4184 12.516 77.7711 14.0968 77.7711C16.4003 77.7711 18.36 77.1057 19.9736 75.7761C21.5883 74.4464 22.3957 72.4926 22.3957 69.9085C22.3957 68.5449 22.1185 67.3571 21.5714 66.3474C21.0158 65.3365 20.2423 64.5208 19.2425 63.8978C18.2329 63.2748 17.2839 62.8785 16.3749 62.7112C15.4755 62.5512 13.9867 62.4676 11.9108 62.4676H11.2971V59.2859H12.5075C17.8892 59.2859 20.5788 57.1054 20.5788 52.7528C20.5788 50.7323 19.9651 49.1324 18.7377 47.9373C17.5103 46.7507 15.9633 46.1531 14.0799 46.1531C11.642 46.1531 9.3543 47.2561 7.2106 49.4621L4.73039 47.2561V47.2537ZM51.8047 67.0637H36.1669V79.9953H32.7365V53.1722H36.1669V63.8299H51.8047V53.1722H55.2351V79.9953H51.8047V67.0637ZM89.5973 53.1722V79.9953H86.1669V75.3821C84.7204 77.1421 83.1069 78.4632 81.307 79.3396C79.5167 80.2147 77.5485 80.6522 75.4218 80.6522C71.6379 80.6522 68.4012 79.2802 65.72 76.536C63.0377 73.7834 61.7013 70.449 61.7013 66.5086C61.7013 62.6615 63.0546 59.361 65.7624 56.6254C68.4617 53.8898 71.7154 52.5165 75.5234 52.5165C77.718 52.5165 79.7019 52.9795 81.4849 53.9055C83.2594 54.8315 84.8233 56.2291 86.1681 58.1066V53.1734H89.5985L89.5973 53.1722ZM75.7922 55.8497C73.8748 55.8497 72.1015 56.3212 70.4868 57.2642C68.8648 58.1987 67.578 59.521 66.6194 61.2216C65.6607 62.9221 65.1814 64.7244 65.1814 66.6262C65.1814 68.5037 65.6607 70.3048 66.6279 72.0223C67.595 73.7398 68.889 75.0779 70.5207 76.0294C72.1523 76.9894 73.9002 77.4693 75.7667 77.4693C77.6417 77.4693 79.432 76.9978 81.1145 76.0464C82.8043 75.0949 84.0995 73.8149 85.0073 72.1908C85.9151 70.5739 86.369 68.7473 86.369 66.7183C86.369 63.6287 85.3511 61.0434 83.309 58.9647C81.2743 56.8848 78.7686 55.8497 75.7934 55.8497H75.7922ZM116.443 67.0637H100.805V79.9953H97.3745V53.1722H100.805V63.8299H116.443V53.1722H119.873V79.9953H116.443V67.0637ZM130.98 53.1722V73.0404L150.687 53.1722H150.956V79.9953H147.526V60.2786L127.97 79.9953H127.55V53.1722H130.98ZM162.063 53.1722V73.0404L181.771 53.1722H182.039V79.9953H178.609V60.2786L159.053 79.9953H158.633V53.1722H162.063ZM161.609 42.3618H164.838C165.402 43.2199 166.15 43.8599 167.091 44.2902C168.025 44.7193 169.152 44.9387 170.446 44.9387C171.765 44.9387 172.834 44.7447 173.641 44.3666C174.449 43.9884 175.214 43.323 175.936 42.363H179.064C178.702 43.8442 177.777 45.0829 176.298 46.0756C174.81 47.0695 172.851 47.5652 170.421 47.5652C168.009 47.5652 166.041 47.0767 164.519 46.0998C162.989 45.1229 162.022 43.8769 161.61 42.3618H161.609Z" fill="white" stroke="white"/>
</svg>
