<svg width="31" height="31" viewBox="0 0 31 31" fill="none" xmlns="http://www.w3.org/2000/svg">
<path d="M15.5003 27.1665C18.5945 27.1665 21.562 25.9373 23.7499 23.7494C25.9378 21.5615 27.167 18.594 27.167 15.4998C27.167 12.4056 25.9378 9.43818 23.7499 7.25026C21.562 5.06233 18.5945 3.83317 15.5003 3.83317C12.4061 3.83317 9.43867 5.06233 7.25075 7.25026C5.06282 9.43818 3.83366 12.4056 3.83366 15.4998C3.83366 18.594 5.06282 21.5615 7.25075 23.7494C9.43867 25.9373 12.4061 27.1665 15.5003 27.1665ZM15.5003 30.0832C7.44595 30.0832 0.916992 23.5542 0.916992 15.4998C0.916992 7.44546 7.44595 0.916504 15.5003 0.916504C23.5547 0.916504 30.0837 7.44546 30.0837 15.4998C30.0837 23.5542 23.5547 30.0832 15.5003 30.0832Z" fill="white"/>
<path d="M20.8145 14.6308C20.832 12.4549 19.0368 10.4599 16.8128 10.1843L16.667 10.1624C16.5555 10.1403 16.4423 10.1276 16.3287 10.1245C15.8722 10.1245 15.7512 10.4541 15.7191 10.651C15.7009 10.7327 15.6992 10.8173 15.7143 10.8997C15.7293 10.9821 15.7607 11.0607 15.8066 11.1308C15.9582 11.3422 16.2237 11.3787 16.4366 11.4108C16.4993 11.4195 16.5591 11.4268 16.6072 11.4399C18.6066 11.8993 19.2803 12.6241 19.6085 14.6701C19.6172 14.7212 19.6201 14.7824 19.623 14.8481C19.6376 15.0916 19.6682 15.6006 20.1991 15.6006C20.2428 15.6006 20.2895 15.5976 20.3391 15.5889C20.8335 15.5116 20.8174 15.0464 20.8101 14.8233C20.8064 14.7694 20.8064 14.7153 20.8101 14.6614C20.8117 14.6517 20.8127 14.642 20.813 14.6322L20.8145 14.6308Z" fill="white"/>
<path d="M16.2005 9.38513C16.2589 9.38951 16.3172 9.39388 16.3624 9.40117C19.6437 9.92325 21.1545 11.5274 21.573 14.9428C21.5803 15.0012 21.5803 15.0712 21.5818 15.147C21.5862 15.4139 21.5949 15.968 22.1724 15.9797H22.1899C22.2692 15.9839 22.3485 15.9711 22.4224 15.9422C22.4964 15.9133 22.5633 15.8689 22.6187 15.812C22.798 15.618 22.7864 15.3308 22.7762 15.0974C22.7733 15.042 22.7703 14.988 22.7718 14.9414C22.8126 11.4487 19.8843 8.28117 16.5039 8.16451L16.463 8.16596C16.45 8.16788 16.4368 8.16886 16.4237 8.16888C16.3901 8.16888 16.3478 8.16596 16.3041 8.16305C16.2459 8.15773 16.1875 8.15481 16.1291 8.1543C15.591 8.1543 15.4889 8.54805 15.4757 8.7843C15.4466 9.32826 15.9555 9.36763 16.2005 9.38513ZM21.4141 19.3558C21.3439 19.3007 21.2743 19.2448 21.2055 19.188C20.8468 18.8905 20.4647 18.6164 20.0972 18.351C20.0203 18.2957 19.9435 18.2403 19.8668 18.1847C19.3943 17.8435 18.9699 17.6758 18.5689 17.6758C18.0293 17.6758 17.5582 17.9849 17.1689 18.593C16.9968 18.8614 16.7868 18.9926 16.5301 18.9926C16.3509 18.9862 16.1753 18.941 16.0153 18.8599C14.4914 18.1453 13.402 17.0516 12.7793 15.6078C12.4789 14.9078 12.5751 14.4528 13.106 14.081C13.4064 13.871 13.9664 13.4787 13.927 12.7276C13.8832 11.8745 12.0589 9.30784 11.2903 9.01617C10.9625 8.89245 10.601 8.89141 10.2724 9.01326C9.39013 9.31951 8.75575 9.85909 8.43929 10.5693C8.13304 11.2576 8.14763 12.0641 8.48013 12.9041C9.43825 15.3337 10.7843 17.4512 12.4847 19.1983C14.1472 20.9089 16.1918 22.3089 18.5601 23.3618C18.773 23.4566 18.9976 23.5076 19.161 23.5455L19.2995 23.5805C19.3185 23.586 19.3381 23.5889 19.3578 23.5893H19.3768C20.491 23.5893 21.8283 22.5393 22.2395 21.3405C22.5997 20.2905 21.942 19.7728 21.4141 19.3572V19.3558ZM16.6935 12.1603C16.5039 12.1647 16.1058 12.1749 15.9657 12.592C15.9016 12.7874 15.9089 12.9566 15.9891 13.0951C16.1072 13.2993 16.3347 13.362 16.5403 13.3955C17.287 13.5195 17.672 13.9468 17.7478 14.7372C17.7843 15.1076 18.0249 15.3643 18.3341 15.3643C18.3575 15.3648 18.3808 15.3638 18.4041 15.3614C18.776 15.3147 18.9553 15.0333 18.9393 14.5228C18.9451 13.9891 18.6753 13.3853 18.216 12.9041C17.7551 12.4199 17.1995 12.1472 16.6935 12.1603Z" fill="white"/>
</svg>
