<svg width="35" height="35" viewBox="0 0 35 35" fill="none" xmlns="http://www.w3.org/2000/svg">
<path d="M17.5003 29.1665C20.5945 29.1665 23.562 27.9373 25.7499 25.7494C27.9378 23.5615 29.167 20.594 29.167 17.4998C29.167 14.4056 27.9378 11.4382 25.7499 9.25026C23.562 7.06233 20.5945 5.83317 17.5003 5.83317C14.4061 5.83317 11.4387 7.06233 9.25075 9.25026C7.06282 11.4382 5.83366 14.4056 5.83366 17.4998C5.83366 20.594 7.06282 23.5615 9.25075 25.7494C11.4387 27.9373 14.4061 29.1665 17.5003 29.1665V29.1665ZM17.5003 32.0832C9.44595 32.0832 2.91699 25.5542 2.91699 17.4998C2.91699 9.44546 9.44595 2.9165 17.5003 2.9165C25.5547 2.9165 32.0837 9.44546 32.0837 17.4998C32.0837 25.5542 25.5547 32.0832 17.5003 32.0832Z" fill="white"/>
<path d="M22.8145 16.6308C22.832 14.4549 21.0368 12.4599 18.8128 12.1843L18.667 12.1624C18.5555 12.1403 18.4423 12.1276 18.3287 12.1245C17.8722 12.1245 17.7512 12.4541 17.7191 12.651C17.7009 12.7327 17.6992 12.8173 17.7143 12.8997C17.7293 12.9821 17.7607 13.0607 17.8066 13.1308C17.9582 13.3422 18.2237 13.3787 18.4366 13.4108C18.4993 13.4195 18.5591 13.4268 18.6072 13.4399C20.6066 13.8993 21.2803 14.6241 21.6085 16.6701C21.6172 16.7212 21.6201 16.7824 21.623 16.8481C21.6376 17.0916 21.6682 17.6006 22.1991 17.6006C22.2428 17.6006 22.2895 17.5976 22.3391 17.5889C22.8335 17.5116 22.8174 17.0464 22.8101 16.8233C22.8064 16.7694 22.8064 16.7153 22.8101 16.6614C22.8117 16.6517 22.8127 16.642 22.813 16.6322L22.8145 16.6308Z" fill="white"/>
<path d="M18.2005 11.3851C18.2589 11.3895 18.3172 11.3939 18.3624 11.4012C21.6437 11.9233 23.1545 13.5274 23.573 16.9428C23.5803 17.0012 23.5803 17.0712 23.5818 17.147C23.5862 17.4139 23.5949 17.968 24.1724 17.9797H24.1899C24.2692 17.9839 24.3485 17.9711 24.4224 17.9422C24.4964 17.9133 24.5633 17.8689 24.6187 17.812C24.798 17.618 24.7864 17.3308 24.7762 17.0974C24.7733 17.042 24.7703 16.988 24.7718 16.9414C24.8126 13.4487 21.8843 10.2812 18.5039 10.1645L18.463 10.166C18.45 10.1679 18.4368 10.1689 18.4237 10.1689C18.3901 10.1689 18.3478 10.166 18.3041 10.163C18.2459 10.1577 18.1875 10.1548 18.1291 10.1543C17.591 10.1543 17.4889 10.548 17.4757 10.7843C17.4466 11.3283 17.9555 11.3676 18.2005 11.3851V11.3851ZM23.4141 21.3558C23.3439 21.3007 23.2743 21.2448 23.2055 21.188C22.8468 20.8905 22.4647 20.6164 22.0972 20.351C22.0203 20.2957 21.9435 20.2403 21.8668 20.1847C21.3943 19.8435 20.9699 19.6758 20.5689 19.6758C20.0293 19.6758 19.5582 19.9849 19.1689 20.593C18.9968 20.8614 18.7868 20.9926 18.5301 20.9926C18.3509 20.9862 18.1753 20.941 18.0153 20.8599C16.4914 20.1453 15.402 19.0516 14.7793 17.6078C14.4789 16.9078 14.5751 16.4528 15.106 16.081C15.4064 15.871 15.9664 15.4787 15.927 14.7276C15.8832 13.8745 14.0589 11.3078 13.2903 11.0162C12.9625 10.8924 12.601 10.8914 12.2724 11.0133C11.3901 11.3195 10.7558 11.8591 10.4393 12.5693C10.133 13.2576 10.1476 14.0641 10.4801 14.9041C11.4383 17.3337 12.7843 19.4512 14.4847 21.1983C16.1472 22.9089 18.1918 24.3089 20.5601 25.3618C20.773 25.4566 20.9976 25.5076 21.161 25.5455L21.2995 25.5805C21.3185 25.586 21.3381 25.5889 21.3578 25.5893H21.3768C22.491 25.5893 23.8283 24.5393 24.2395 23.3405C24.5997 22.2905 23.942 21.7728 23.4141 21.3572V21.3558ZM18.6935 14.1603C18.5039 14.1647 18.1057 14.1749 17.9657 14.592C17.9016 14.7874 17.9089 14.9566 17.9891 15.0951C18.1072 15.2993 18.3347 15.362 18.5403 15.3955C19.287 15.5195 19.672 15.9468 19.7478 16.7372C19.7843 17.1076 20.0249 17.3643 20.3341 17.3643C20.3575 17.3648 20.3808 17.3638 20.4041 17.3614C20.776 17.3147 20.9553 17.0333 20.9393 16.5228C20.9451 15.9891 20.6753 15.3853 20.216 14.9041C19.7551 14.4199 19.1995 14.1472 18.6935 14.1603V14.1603Z" fill="white"/>
</svg>
