<svg width="35" height="35" viewBox="0 0 35 35" fill="none" xmlns="http://www.w3.org/2000/svg">
<path d="M17.5003 29.1668C20.5945 29.1667 23.562 27.9376 25.7499 25.7497C27.9378 23.5617 29.167 20.5943 29.167 17.5001C29.167 14.4059 27.9378 11.4384 25.7499 9.2505C23.562 7.06258 20.5945 5.83342 17.5003 5.83342C14.4061 5.83342 11.4387 7.06258 9.25075 9.2505C7.06282 11.4384 5.83366 14.4059 5.83366 17.5001C5.83366 20.5943 7.06282 23.5617 9.25075 25.7497C11.4387 27.9376 14.4061 29.1667 17.5003 29.1668ZM17.5003 32.0834C9.44595 32.0834 2.91699 25.5545 2.91699 17.5001C2.91699 9.44571 9.44595 2.91675 17.5003 2.91675C25.5547 2.91675 32.0837 9.44571 32.0837 17.5001C32.0837 25.5545 25.5547 32.0834 17.5003 32.0834Z" fill="#EB4549"/>
<path d="M22.8145 16.631C22.832 14.4552 21.0368 12.4602 18.8128 12.1845L18.667 12.1627C18.5555 12.1405 18.4423 12.1278 18.3287 12.1248C17.8722 12.1248 17.7512 12.4543 17.7191 12.6512C17.7009 12.733 17.6992 12.8176 17.7143 12.9C17.7293 12.9824 17.7607 13.0609 17.8066 13.131C17.9582 13.3425 18.2237 13.3789 18.4366 13.411C18.4993 13.4198 18.5591 13.427 18.6072 13.4402C20.6066 13.8995 21.2803 14.6243 21.6085 16.6704C21.6172 16.7214 21.6201 16.7827 21.623 16.8483C21.6376 17.0918 21.6682 17.6008 22.1991 17.6008C22.2428 17.6008 22.2895 17.5979 22.3391 17.5891C22.8335 17.5118 22.8174 17.0466 22.8101 16.8235C22.8064 16.7696 22.8064 16.7155 22.8101 16.6616C22.8117 16.652 22.8127 16.6422 22.813 16.6325L22.8145 16.631Z" fill="#EB4549"/>
<path d="M18.2005 11.3854C18.2589 11.3897 18.3172 11.3941 18.3624 11.4014C21.6437 11.9235 23.1545 13.5277 23.573 16.9431C23.5803 17.0014 23.5803 17.0714 23.5818 17.1472C23.5862 17.4141 23.5949 17.9683 24.1724 17.98H24.1899C24.2692 17.9842 24.3485 17.9714 24.4224 17.9425C24.4964 17.9135 24.5633 17.8691 24.6187 17.8122C24.798 17.6183 24.7864 17.331 24.7762 17.0977C24.7733 17.0422 24.7703 16.9883 24.7718 16.9416C24.8126 13.4489 21.8843 10.2814 18.5039 10.1647L18.463 10.1662C18.45 10.1681 18.4368 10.1691 18.4237 10.1691C18.3901 10.1691 18.3478 10.1662 18.3041 10.1633C18.2459 10.158 18.1875 10.1551 18.1291 10.1545C17.591 10.1545 17.4889 10.5483 17.4757 10.7845C17.4466 11.3285 17.9555 11.3679 18.2005 11.3854ZM23.4141 21.356C23.3439 21.301 23.2743 21.2451 23.2055 21.1883C22.8468 20.8908 22.4647 20.6166 22.0972 20.3512C22.0203 20.2959 21.9435 20.2405 21.8668 20.185C21.3943 19.8437 20.9699 19.676 20.5689 19.676C20.0293 19.676 19.5582 19.9852 19.1689 20.5933C18.9968 20.8616 18.7868 20.9929 18.5301 20.9929C18.3509 20.9865 18.1753 20.9412 18.0153 20.8602C16.4914 20.1456 15.402 19.0518 14.7793 17.6081C14.4789 16.9081 14.5751 16.4531 15.106 16.0812C15.4064 15.8712 15.9664 15.4789 15.927 14.7279C15.8832 13.8747 14.0589 11.3081 13.2903 11.0164C12.9625 10.8927 12.601 10.8917 12.2724 11.0135C11.3901 11.3197 10.7558 11.8593 10.4393 12.5695C10.133 13.2579 10.1476 14.0643 10.4801 14.9043C11.4383 17.3339 12.7843 19.4514 14.4847 21.1985C16.1472 22.9091 18.1918 24.3091 20.5601 25.362C20.773 25.4568 20.9976 25.5079 21.161 25.5458L21.2995 25.5808C21.3185 25.5862 21.3381 25.5892 21.3578 25.5895H21.3768C22.491 25.5895 23.8283 24.5395 24.2395 23.3408C24.5997 22.2908 23.942 21.7731 23.4141 21.3575V21.356ZM18.6935 14.1606C18.5039 14.165 18.1058 14.1752 17.9657 14.5922C17.9016 14.7877 17.9089 14.9568 17.9891 15.0954C18.1072 15.2995 18.3347 15.3622 18.5403 15.3958C19.287 15.5197 19.672 15.947 19.7478 16.7375C19.7843 17.1079 20.0249 17.3645 20.3341 17.3645C20.3575 17.365 20.3808 17.3641 20.4041 17.3616C20.776 17.315 20.9553 17.0335 20.9393 16.5231C20.9451 15.9893 20.6753 15.3856 20.216 14.9043C19.7551 14.4202 19.1995 14.1475 18.6935 14.1606Z" fill="#EB4549"/>
</svg>
