<svg width="35" height="35" viewBox="0 0 35 35" fill="none" xmlns="http://www.w3.org/2000/svg">
<path d="M22.464 19.5285C22.0765 19.1093 21.6414 18.7369 21.1674 18.4188C23.0787 16.9412 24.4183 14.8463 24.9577 12.4914C24.9982 12.321 25.0046 12.1442 24.9764 11.9713C24.9482 11.7984 24.886 11.6329 24.7934 11.4841C24.7009 11.3354 24.5798 11.2065 24.4371 11.1049C24.2944 11.0033 24.133 10.9309 23.9622 10.892C23.7914 10.8532 23.6146 10.8485 23.442 10.8783C23.2694 10.9082 23.1045 10.9719 22.9566 11.0659C22.8088 11.1599 22.6811 11.2822 22.5808 11.4259C22.4806 11.5695 22.4097 11.7316 22.3725 11.9027C22.1216 13.0045 21.6334 14.0383 20.9419 14.932C20.2503 15.8257 19.3722 16.5577 18.3687 17.0772V12.1997C18.3603 12.1023 18.3408 12.0062 18.3104 11.9133C18.3014 11.8366 18.2859 11.7607 18.264 11.6866C18.2074 11.5655 18.1328 11.4538 18.0426 11.3552C18.0187 11.3287 18.0068 11.2916 17.9816 11.265C17.8845 11.1754 17.7746 11.1008 17.6554 11.0436C17.621 11.0251 17.5958 10.9946 17.56 10.98C17.4586 10.9461 17.3536 10.9243 17.2471 10.915C17.1812 10.8958 17.1138 10.8821 17.0456 10.8739L16.1785 10.8713H16.1746C15.864 10.8691 15.5625 10.9766 15.3234 11.1748C15.0843 11.373 14.9228 11.6493 14.8673 11.9549C14.8118 12.2605 14.866 12.5759 15.0203 12.8455C15.1745 13.1151 15.419 13.3216 15.7106 13.4287V19.9116C13.6096 17.7309 12.2184 14.9651 11.72 11.9783C11.6613 11.6316 11.4673 11.3224 11.1806 11.1188C10.8939 10.9152 10.5381 10.8338 10.1914 10.8925C9.84473 10.9512 9.53557 11.1453 9.33194 11.4319C9.12832 11.7186 9.04691 12.0744 9.10563 12.4211C9.88031 17.0384 12.455 21.1597 16.2647 23.881C16.3192 23.9133 16.3759 23.9417 16.4344 23.9658C16.4806 23.9927 16.5284 24.0166 16.5776 24.0374C16.7253 24.0965 16.8825 24.1284 17.0416 24.1315C17.2368 24.1291 17.4289 24.0829 17.6037 23.9963C17.617 23.9897 17.6316 23.9936 17.6448 23.987C17.762 23.9257 17.8693 23.847 17.963 23.7537C17.9829 23.7351 17.9948 23.7139 18.0134 23.694C18.099 23.6001 18.1704 23.4943 18.2255 23.3798C18.2438 23.3422 18.2601 23.3037 18.2746 23.2645C18.3328 23.1184 18.3642 22.963 18.3674 22.8058V19.9872C19.1894 20.2281 19.9302 20.6888 20.5098 21.3196L22.6933 23.702C22.931 23.9611 23.2619 24.1152 23.6132 24.1304C23.9645 24.1456 24.3075 24.0205 24.5666 23.7829C24.8258 23.5452 24.9799 23.2143 24.995 22.863C25.0102 22.5116 24.8852 22.1687 24.6475 21.9096L22.464 19.5285ZM21.5744 2.91675H13.4395C5.27684 2.91675 2.91699 5.27395 2.91699 13.426V21.5609C2.91699 29.7236 5.27419 32.0834 13.4263 32.0834H21.5611C29.7238 32.0834 32.0837 29.7262 32.0837 21.5741V13.4393C32.0837 5.2766 29.7265 2.91675 21.5744 2.91675ZM29.4321 21.5741C29.4321 28.256 28.2549 29.4319 21.5598 29.4319H13.4276C6.74446 29.4319 5.56851 28.2546 5.56851 21.5596V13.4274C5.56851 6.74421 6.74578 5.56826 13.4409 5.56826H21.5744C28.2562 5.56826 29.4321 6.74554 29.4321 13.4406V21.5741Z" fill="#EB4549"/>
</svg>
