<svg width="35" height="35" viewBox="0 0 35 35" fill="none" xmlns="http://www.w3.org/2000/svg">
<path d="M22.464 19.5282C22.0765 19.1091 21.6414 18.7366 21.1674 18.4186C23.0787 16.941 24.4183 14.8461 24.9577 12.4911C24.9982 12.3207 25.0046 12.144 24.9764 11.9711C24.9482 11.7982 24.886 11.6326 24.7934 11.4839C24.7009 11.3352 24.5798 11.2063 24.4371 11.1047C24.2944 11.003 24.133 10.9307 23.9622 10.8918C23.7914 10.8529 23.6146 10.8483 23.442 10.8781C23.2694 10.9079 23.1045 10.9717 22.9566 11.0657C22.8088 11.1597 22.6811 11.282 22.5808 11.4256C22.4806 11.5693 22.4097 11.7313 22.3725 11.9025C22.1216 13.0043 21.6334 14.038 20.9419 14.9317C20.2503 15.8254 19.3722 16.5575 18.3687 17.0769V12.1995C18.3603 12.1021 18.3408 12.006 18.3104 11.9131C18.3014 11.8363 18.2859 11.7605 18.264 11.6864C18.2074 11.5653 18.1328 11.4535 18.0426 11.355C18.0187 11.3284 18.0068 11.2913 17.9816 11.2648C17.8845 11.1752 17.7746 11.1006 17.6554 11.0434C17.621 11.0248 17.5958 10.9943 17.56 10.9798C17.4586 10.9458 17.3536 10.924 17.2471 10.9148C17.1812 10.8956 17.1138 10.8819 17.0456 10.8737L16.1785 10.8711H16.1746C15.864 10.8689 15.5625 10.9763 15.3234 11.1746C15.0843 11.3728 14.9228 11.649 14.8673 11.9546C14.8118 12.2603 14.866 12.5757 15.0203 12.8453C15.1745 13.1149 15.419 13.3214 15.7106 13.4284V19.9114C13.6096 17.7307 12.2184 14.9649 11.72 11.9781C11.6613 11.6314 11.4673 11.3222 11.1806 11.1186C10.8939 10.915 10.5381 10.8335 10.1914 10.8923C9.84473 10.951 9.53557 11.145 9.33194 11.4317C9.12832 11.7184 9.04691 12.0742 9.10563 12.4209C9.88031 17.0381 12.455 21.1595 16.2647 23.8807C16.3192 23.9131 16.3759 23.9414 16.4344 23.9656C16.4806 23.9925 16.5284 24.0164 16.5776 24.0371C16.7253 24.0963 16.8825 24.1282 17.0416 24.1313C17.2368 24.1289 17.4289 24.0826 17.6037 23.9961C17.617 23.9894 17.6316 23.9934 17.6448 23.9868C17.762 23.9254 17.8693 23.8468 17.963 23.7534C17.9829 23.7349 17.9948 23.7137 18.0134 23.6938C18.099 23.5999 18.1704 23.494 18.2255 23.3796C18.2438 23.342 18.2601 23.3035 18.2746 23.2642C18.3328 23.1181 18.3642 22.9628 18.3674 22.8055V19.987C19.1894 20.2279 19.9302 20.6886 20.5098 21.3193L22.6933 23.7017C22.931 23.9609 23.2619 24.115 23.6132 24.1301C23.9645 24.1453 24.3075 24.0203 24.5666 23.7826C24.8258 23.5449 24.9799 23.214 24.995 22.8627C25.0102 22.5114 24.8852 22.1684 24.6475 21.9093L22.464 19.5282ZM21.5744 2.9165H13.4395C5.27684 2.9165 2.91699 5.2737 2.91699 13.4258V21.5606C2.91699 29.7233 5.27419 32.0832 13.4263 32.0832H21.5611C29.7238 32.0832 32.0837 29.726 32.0837 21.5739V13.439C32.0837 5.27635 29.7265 2.9165 21.5744 2.9165ZM29.4321 21.5739C29.4321 28.2557 28.2549 29.4317 21.5598 29.4317H13.4276C6.74446 29.4317 5.56851 28.2544 5.56851 21.5593V13.4271C5.56851 6.74397 6.74578 5.56802 13.4409 5.56802H21.5744C28.2562 5.56802 29.4321 6.74529 29.4321 13.4404V21.5739Z" fill="white"/>
</svg>
